<svg width="40" height="40" viewBox="0 0 40 40" fill="none" xmlns="http://www.w3.org/2000/svg">
<rect width="40" height="40" fill="#1E1E1E"/>
<path d="M-4439 -1298C-4439 -1299.1 -4438.1 -1300 -4437 -1300H2477C2478.1 -1300 2479 -1299.1 2479 -1298V7753C2479 7754.1 2478.1 7755 2477 7755H-4437C-4438.1 7755 -4439 7754.1 -4439 7753V-1298Z" fill="#404040"/>
<path d="M-4437 -1299H2477V-1301H-4437V-1299ZM2478 -1298V7753H2480V-1298H2478ZM2477 7754H-4437V7756H2477V7754ZM-4438 7753V-1298H-4440V7753H-4438ZM-4437 7754C-4437.55 7754 -4438 7753.55 -4438 7753H-4440C-4440 7754.66 -4438.66 7756 -4437 7756V7754ZM2478 7753C2478 7753.55 2477.55 7754 2477 7754V7756C2478.66 7756 2480 7754.66 2480 7753H2478ZM2477 -1299C2477.55 -1299 2478 -1298.55 2478 -1298H2480C2480 -1299.66 2478.66 -1301 2477 -1301V-1299ZM-4437 -1301C-4438.66 -1301 -4440 -1299.66 -4440 -1298H-4438C-4438 -1298.55 -4437.55 -1299 -4437 -1299V-1301Z" fill="white" fill-opacity="0.1"/>
<g clip-path="url(#clip0_0_1)">
<rect x="-545" y="-64" width="1920" height="6538" fill="#FAF8FB"/>
<path d="M-545 -64H1375V1056C1375 1104.6 1335.6 1144 1287 1144H-457C-505.601 1144 -545 1104.6 -545 1056V-64Z" fill="#0C0115"/>
<g opacity="0.2" clip-path="url(#clip1_0_1)">
<path d="M-922.488 -312.391H-986.178V-248.701M-922.488 -312.391V-248.701M-922.488 -312.391H-858.798M-986.178 -248.701H-922.488M-986.178 -248.701V-185.011M-922.488 -248.701V-185.011M-922.488 -248.701H-858.798M-858.798 -312.391V-248.701M-858.798 -312.391H-795.108M-922.488 -185.011H-986.178M-922.488 -185.011V-121.321M-922.488 -185.011H-858.798M-858.798 -248.701V-185.011M-858.798 -248.701H-795.108M-986.178 -185.011V-121.321M-922.488 -121.321H-986.178M-922.488 -121.321V-57.6309M-922.488 -121.321H-858.798M-858.798 -185.011V-121.321M-858.798 -185.011H-795.108M-986.178 -121.321V-57.6309M-922.488 -57.6309H-986.178M-922.488 -57.6309V6.05899M-922.488 -57.6309H-858.798M-858.798 -121.321V-57.6309M-858.798 -121.321H-795.108M-986.178 -57.6309V6.05899M-922.488 6.05899H-986.178M-922.488 6.05899V69.7489M-922.488 6.05899H-858.798M-858.798 -57.6309V6.05899M-858.798 -57.6309H-795.108M-986.178 6.05899V69.7489M-922.488 69.7489H-986.178M-922.488 69.7489V133.439M-922.488 69.7489H-858.798M-858.798 6.05899V69.7489M-858.798 6.05899H-795.108M-986.178 69.7489V133.439M-922.488 133.439H-986.178M-922.488 133.439V197.129M-922.488 133.439H-858.798M-858.798 69.7489V133.439M-858.798 69.7489H-795.108M-986.178 133.439V197.129M-922.488 197.129H-986.178M-922.488 197.129V260.819M-922.488 197.129H-858.798M-858.798 133.439V197.129M-858.798 133.439H-795.108M-986.178 197.129V260.819M-922.488 260.819H-986.178M-922.488 260.819V324.509M-922.488 260.819H-858.798M-858.798 197.129V260.819M-858.798 197.129H-795.108M-986.178 260.819V324.509M-922.488 324.509H-986.178M-922.488 324.509V388.199M-922.488 324.509H-858.798M-858.798 260.819V324.509M-858.798 260.819H-795.108M-986.178 324.509V388.199M-922.488 388.199H-986.178M-922.488 388.199V451.888M-922.488 388.199H-858.798M-858.798 324.509V388.199M-858.798 324.509H-795.108M-986.178 388.199V451.888M-922.488 451.888H-986.178M-922.488 451.888V515.578M-922.488 451.888H-858.798M-858.798 388.199V451.888M-858.798 388.199H-795.108M-986.178 451.888V515.578M-922.488 515.578H-986.178M-922.488 515.578V579.268M-922.488 515.578H-858.798M-858.798 451.888V515.578M-858.798 451.888H-795.108M-986.178 515.578V579.268M-922.488 579.268H-986.178M-922.488 579.268V642.958M-922.488 579.268H-858.798M-858.798 515.578V579.268M-858.798 515.578H-795.108M-986.178 579.268V642.958M-922.488 642.958H-986.178M-922.488 642.958V706.648M-922.488 642.958H-858.798M-858.798 579.268V642.958M-858.798 579.268H-795.108M-986.178 642.958V706.648M-922.488 706.648H-986.178M-922.488 706.648V770.338M-922.488 706.648H-858.798M-858.798 642.958V706.648M-858.798 642.958H-795.108M-986.178 706.648V770.338M-922.488 770.338H-986.178M-922.488 770.338V834.028M-922.488 770.338H-858.798M-858.798 706.648V770.338M-858.798 706.648H-795.108M-986.178 770.338V834.028M-922.488 834.028H-986.178M-922.488 834.028V897.718M-922.488 834.028H-858.798M-858.798 770.338V834.028M-858.798 770.338H-795.108M-986.178 834.028V897.718M-922.488 897.718H-986.178M-922.488 897.718V961.408M-922.488 897.718H-858.798M-858.798 834.028V897.718M-858.798 834.028H-795.108M-986.178 897.718V961.408H-922.488M-922.488 961.408H-858.798M-858.798 897.718V961.408M-858.798 897.718H-795.108M-858.798 961.408H-795.108M-795.108 -312.391V-248.701M-795.108 -312.391H-731.419M-795.108 -248.701V-185.011M-795.108 -248.701H-731.419M-795.108 -185.011V-121.321M-795.108 -185.011H-731.419M-795.108 -121.321V-57.6309M-795.108 -121.321H-731.419M-795.108 -57.6309V6.05899M-795.108 -57.6309H-731.419M-795.108 6.05899V69.7489M-795.108 6.05899H-731.419M-795.108 69.7489V133.439M-795.108 69.7489H-731.419M-795.108 133.439V197.129M-795.108 133.439H-731.419M-795.108 197.129V260.819M-795.108 197.129H-731.419M-795.108 260.819V324.509M-795.108 260.819H-731.419M-795.108 324.509V388.199M-795.108 324.509H-731.419M-795.108 388.199V451.888M-795.108 388.199H-731.419M-795.108 451.888V515.578M-795.108 451.888H-731.419M-795.108 515.578V579.268M-795.108 515.578H-731.419M-795.108 579.268V642.958M-795.108 579.268H-731.419M-795.108 642.958V706.648M-795.108 642.958H-731.419M-795.108 706.648V770.338M-795.108 706.648H-731.419M-795.108 770.338V834.028M-795.108 770.338H-731.419M-795.108 834.028V897.718M-795.108 834.028H-731.419M-795.108 897.718V961.408M-795.108 897.718H-731.419M-795.108 961.408H-731.419M-731.419 -312.391V-248.701M-731.419 -312.391H-667.729M-731.419 -248.701V-185.011M-731.419 -248.701H-667.729M-731.419 -185.011V-121.321M-731.419 -185.011H-667.729M-731.419 -121.321V-57.6309M-731.419 -121.321H-667.729M-731.419 -57.6309V6.05899M-731.419 -57.6309H-667.729M-731.419 6.05899V69.7489M-731.419 6.05899H-667.729M-731.419 69.7489V133.439M-731.419 69.7489H-667.729M-731.419 133.439V197.129M-731.419 133.439H-667.729M-731.419 197.129V260.819M-731.419 197.129H-667.729M-731.419 260.819V324.509M-731.419 260.819H-667.729M-731.419 324.509V388.199M-731.419 324.509H-667.729M-731.419 388.199V451.888M-731.419 388.199H-667.729M-731.419 451.888V515.578M-731.419 451.888H-667.729M-731.419 515.578V579.268M-731.419 515.578H-667.729M-731.419 579.268V642.958M-731.419 579.268H-667.729M-731.419 642.958V706.648M-731.419 642.958H-667.729M-731.419 706.648V770.338M-731.419 706.648H-667.729M-731.419 770.338V834.028M-731.419 770.338H-667.729M-731.419 834.028V897.718M-731.419 834.028H-667.729M-731.419 897.718V961.408M-731.419 897.718H-667.729M-731.419 961.408H-667.729M-667.729 -312.391V-248.701M-667.729 -312.391H-604.039M-667.729 -248.701V-185.011M-667.729 -248.701H-604.039M-667.729 -185.011V-121.321M-667.729 -185.011H-604.039M-667.729 -121.321V-57.6309M-667.729 -121.321H-604.039M-667.729 -57.6309V6.05899M-667.729 -57.6309H-604.039M-667.729 6.05899V69.7489M-667.729 6.05899H-604.039M-667.729 69.7489V133.439M-667.729 69.7489H-604.039M-667.729 133.439V197.129M-667.729 133.439H-604.039M-667.729 197.129V260.819M-667.729 197.129H-604.039M-667.729 260.819V324.509M-667.729 260.819H-604.039M-667.729 324.509V388.199M-667.729 324.509H-604.039M-667.729 388.199V451.888M-667.729 388.199H-604.039M-667.729 451.888V515.578M-667.729 451.888H-604.039M-667.729 515.578V579.268M-667.729 515.578H-604.039M-667.729 579.268V642.958M-667.729 579.268H-604.039M-667.729 642.958V706.648M-667.729 642.958H-604.039M-667.729 706.648V770.338M-667.729 706.648H-604.039M-667.729 770.338V834.028M-667.729 770.338H-604.039M-667.729 834.028V897.718M-667.729 834.028H-604.039M-667.729 897.718V961.408M-667.729 897.718H-604.039M-667.729 961.408H-604.039M-604.039 -312.391V-248.701M-604.039 -312.391H-540.349M-604.039 -248.701V-185.011M-604.039 -248.701H-540.349M-604.039 -185.011V-121.321M-604.039 -185.011H-540.349M-604.039 -121.321V-57.6309M-604.039 -121.321H-540.349M-604.039 -57.6309V6.05899M-604.039 -57.6309H-540.349M-604.039 6.05899V69.7489M-604.039 6.05899H-540.349M-604.039 69.7489V133.439M-604.039 69.7489H-540.349M-604.039 133.439V197.129M-604.039 133.439H-540.349M-604.039 197.129V260.819M-604.039 197.129H-540.349M-604.039 260.819V324.509M-604.039 260.819H-540.349M-604.039 324.509V388.199M-604.039 324.509H-540.349M-604.039 388.199V451.888M-604.039 388.199H-540.349M-604.039 451.888V515.578M-604.039 451.888H-540.349M-604.039 515.578V579.268M-604.039 515.578H-540.349M-604.039 579.268V642.958M-604.039 579.268H-540.349M-604.039 642.958V706.648M-604.039 642.958H-540.349M-604.039 706.648V770.338M-604.039 706.648H-540.349M-604.039 770.338V834.028M-604.039 770.338H-540.349M-604.039 834.028V897.718M-604.039 834.028H-540.349M-604.039 897.718V961.408M-604.039 897.718H-540.349M-604.039 961.408H-540.349M-540.349 -312.391V-248.701M-540.349 -312.391H-476.659M-540.349 -248.701V-185.011M-540.349 -248.701H-476.659M-540.349 -185.011V-121.321M-540.349 -185.011H-476.659M-540.349 -121.321V-57.6309M-540.349 -121.321H-476.659M-540.349 -57.6309V6.05899M-540.349 -57.6309H-476.659M-540.349 6.05899V69.7489M-540.349 6.05899H-476.659M-540.349 69.7489V133.439M-540.349 69.7489H-476.659M-540.349 133.439V197.129M-540.349 133.439H-476.659M-540.349 197.129V260.819M-540.349 197.129H-476.659M-540.349 260.819V324.509M-540.349 260.819H-476.659M-540.349 324.509V388.199M-540.349 324.509H-476.659M-540.349 388.199V451.888M-540.349 388.199H-476.659M-540.349 451.888V515.578M-540.349 451.888H-476.659M-540.349 515.578V579.268M-540.349 515.578H-476.659M-540.349 579.268V642.958M-540.349 579.268H-476.659M-540.349 642.958V706.648M-540.349 642.958H-476.659M-540.349 706.648V770.338M-540.349 706.648H-476.659M-540.349 770.338V834.028M-540.349 770.338H-476.659M-540.349 834.028V897.718M-540.349 834.028H-476.659M-540.349 897.718V961.408M-540.349 897.718H-476.659M-540.349 961.408H-476.659M-476.659 -312.391V-248.701M-476.659 -312.391H-412.969M-476.659 -248.701V-185.011M-476.659 -248.701H-412.969M-476.659 -185.011V-121.321M-476.659 -185.011H-412.969M-476.659 -121.321V-57.6309M-476.659 -121.321H-412.969M-476.659 -57.6309V6.05899M-476.659 -57.6309H-412.969M-476.659 6.05899V69.7489M-476.659 6.05899H-412.969M-476.659 69.7489V133.439M-476.659 69.7489H-412.969M-476.659 133.439V197.129M-476.659 133.439H-412.969M-476.659 197.129V260.819M-476.659 197.129H-412.969M-476.659 260.819V324.509M-476.659 260.819H-412.969M-476.659 324.509V388.199M-476.659 324.509H-412.969M-476.659 388.199V451.888M-476.659 388.199H-412.969M-476.659 451.888V515.578M-476.659 451.888H-412.969M-476.659 515.578V579.268M-476.659 515.578H-412.969M-476.659 579.268V642.958M-476.659 579.268H-412.969M-476.659 642.958V706.648M-476.659 642.958H-412.969M-476.659 706.648V770.338M-476.659 706.648H-412.969M-476.659 770.338V834.028M-476.659 770.338H-412.969M-476.659 834.028V897.718M-476.659 834.028H-412.969M-476.659 897.718V961.408M-476.659 897.718H-412.969M-476.659 961.408H-412.969M-412.969 -312.391V-248.701M-412.969 -312.391H-349.279M-412.969 -248.701V-185.011M-412.969 -248.701H-349.279M-412.969 -185.011V-121.321M-412.969 -185.011H-349.279M-412.969 -121.321V-57.6309M-412.969 -121.321H-349.279M-412.969 -57.6309V6.05899M-412.969 -57.6309H-349.279M-412.969 6.05899V69.7489M-412.969 6.05899H-349.279M-412.969 69.7489V133.439M-412.969 69.7489H-349.279M-412.969 133.439V197.129M-412.969 133.439H-349.279M-412.969 197.129V260.819M-412.969 197.129H-349.279M-412.969 260.819V324.509M-412.969 260.819H-349.279M-412.969 324.509V388.199M-412.969 324.509H-349.279M-412.969 388.199V451.888M-412.969 388.199H-349.279M-412.969 451.888V515.578M-412.969 451.888H-349.279M-412.969 515.578V579.268M-412.969 515.578H-349.279M-412.969 579.268V642.958M-412.969 579.268H-349.279M-412.969 642.958V706.648M-412.969 642.958H-349.279M-412.969 706.648V770.338M-412.969 706.648H-349.279M-412.969 770.338V834.028M-412.969 770.338H-349.279M-412.969 834.028V897.718M-412.969 834.028H-349.279M-412.969 897.718V961.408M-412.969 897.718H-349.279M-412.969 961.408H-349.279M-349.279 -312.391V-248.701M-349.279 -312.391H-285.589M-349.279 -248.701V-185.011M-349.279 -248.701H-285.589M-349.279 -185.011V-121.321M-349.279 -185.011H-285.589M-349.279 -121.321V-57.6309M-349.279 -121.321H-285.589M-349.279 -57.6309V6.05899M-349.279 -57.6309H-285.589M-349.279 6.05899V69.7489M-349.279 6.05899H-285.589M-349.279 69.7489V133.439M-349.279 69.7489H-285.589M-349.279 133.439V197.129M-349.279 133.439H-285.589M-349.279 197.129V260.819M-349.279 197.129H-285.589M-349.279 260.819V324.509M-349.279 260.819H-285.589M-349.279 324.509V388.199M-349.279 324.509H-285.589M-349.279 388.199V451.888M-349.279 388.199H-285.589M-349.279 451.888V515.578M-349.279 451.888H-285.589M-349.279 515.578V579.268M-349.279 515.578H-285.589M-349.279 579.268V642.958M-349.279 579.268H-285.589M-349.279 642.958V706.648M-349.279 642.958H-285.589M-349.279 706.648V770.338M-349.279 706.648H-285.589M-349.279 770.338V834.028M-349.279 770.338H-285.589M-349.279 834.028V897.718M-349.279 834.028H-285.589M-349.279 897.718V961.408M-349.279 897.718H-285.589M-349.279 961.408H-285.589M-285.589 -312.391V-248.701M-285.589 -312.391H-221.899M-285.589 -248.701V-185.011M-285.589 -248.701H-221.899M-285.589 -185.011V-121.321M-285.589 -185.011H-221.899M-285.589 -121.321V-57.6309M-285.589 -121.321H-221.899M-285.589 -57.6309V6.05899M-285.589 -57.6309H-221.899M-285.589 6.05899V69.7489M-285.589 6.05899H-221.899M-285.589 69.7489V133.439M-285.589 69.7489H-221.899M-285.589 133.439V197.129M-285.589 133.439H-221.899M-285.589 197.129V260.819M-285.589 197.129H-221.899M-285.589 260.819V324.509M-285.589 260.819H-221.899M-285.589 324.509V388.199M-285.589 324.509H-221.899M-285.589 388.199V451.888M-285.589 388.199H-221.899M-285.589 451.888V515.578M-285.589 451.888H-221.899M-285.589 515.578V579.268M-285.589 515.578H-221.899M-285.589 579.268V642.958M-285.589 579.268H-221.899M-285.589 642.958V706.648M-285.589 642.958H-221.899M-285.589 706.648V770.338M-285.589 706.648H-221.899M-285.589 770.338V834.028M-285.589 770.338H-221.899M-285.589 834.028V897.718M-285.589 834.028H-221.899M-285.589 897.718V961.408M-285.589 897.718H-221.899M-285.589 961.408H-221.899M-221.899 -312.391V-248.701M-221.899 -312.391H-158.209M-221.899 -248.701V-185.011M-221.899 -248.701H-158.209M-221.899 -185.011V-121.321M-221.899 -185.011H-158.209M-221.899 -121.321V-57.6309M-221.899 -121.321H-158.209M-221.899 -57.6309V6.05899M-221.899 -57.6309H-158.209M-221.899 6.05899V69.7489M-221.899 6.05899H-158.209M-221.899 69.7489V133.439M-221.899 69.7489H-158.209M-221.899 133.439V197.129M-221.899 133.439H-158.209M-221.899 197.129V260.819M-221.899 197.129H-158.209M-221.899 260.819V324.509M-221.899 260.819H-158.209M-221.899 324.509V388.199M-221.899 324.509H-158.209M-221.899 388.199V451.888M-221.899 388.199H-158.209M-221.899 451.888V515.578M-221.899 451.888H-158.209M-221.899 515.578V579.268M-221.899 515.578H-158.209M-221.899 579.268V642.958M-221.899 579.268H-158.209M-221.899 642.958V706.648M-221.899 642.958H-158.209M-221.899 706.648V770.338M-221.899 706.648H-158.209M-221.899 770.338V834.028M-221.899 770.338H-158.209M-221.899 834.028V897.718M-221.899 834.028H-158.209M-221.899 897.718V961.408M-221.899 897.718H-158.209M-221.899 961.408H-158.209M-158.209 -312.391V-248.701M-158.209 -312.391H-94.5193M-158.209 -248.701V-185.011M-158.209 -248.701H-94.5193M-158.209 -185.011V-121.321M-158.209 -185.011H-94.5193M-158.209 -121.321V-57.6309M-158.209 -121.321H-94.5193M-158.209 -57.6309V6.05899M-158.209 -57.6309H-94.5193M-158.209 6.05899V69.7489M-158.209 6.05899H-94.5193M-158.209 69.7489V133.439M-158.209 69.7489H-94.5193M-158.209 133.439V197.129M-158.209 133.439H-94.5193M-158.209 197.129V260.819M-158.209 197.129H-94.5193M-158.209 260.819V324.509M-158.209 260.819H-94.5193M-158.209 324.509V388.199M-158.209 324.509H-94.5193M-158.209 388.199V451.888M-158.209 388.199H-94.5193M-158.209 451.888V515.578M-158.209 451.888H-94.5193M-158.209 515.578V579.268M-158.209 515.578H-94.5193M-158.209 579.268V642.958M-158.209 579.268H-94.5193M-158.209 642.958V706.648M-158.209 642.958H-94.5193M-158.209 706.648V770.338M-158.209 706.648H-94.5193M-158.209 770.338V834.028M-158.209 770.338H-94.5193M-158.209 834.028V897.718M-158.209 834.028H-94.5193M-158.209 897.718V961.408M-158.209 897.718H-94.5193M-158.209 961.408H-94.5193M-94.5193 -312.391V-248.701M-94.5193 -312.391H-30.8294M-94.5193 -248.701V-185.011M-94.5193 -248.701H-30.8294M-94.5193 -185.011V-121.321M-94.5193 -185.011H-30.8294M-94.5193 -121.321V-57.6309M-94.5193 -121.321H-30.8294M-94.5193 -57.6309V6.05899M-94.5193 -57.6309H-30.8294M-94.5193 6.05899V69.7489M-94.5193 6.05899H-30.8294M-94.5193 69.7489V133.439M-94.5193 69.7489H-30.8294M-94.5193 133.439V197.129M-94.5193 133.439H-30.8294M-94.5193 197.129V260.819M-94.5193 197.129H-30.8294M-94.5193 260.819V324.509M-94.5193 260.819H-30.8294M-94.5193 324.509V388.199M-94.5193 324.509H-30.8294M-94.5193 388.199V451.888M-94.5193 388.199H-30.8294M-94.5193 451.888V515.578M-94.5193 451.888H-30.8294M-94.5193 515.578V579.268M-94.5193 515.578H-30.8294M-94.5193 579.268V642.958M-94.5193 579.268H-30.8294M-94.5193 642.958V706.648M-94.5193 642.958H-30.8294M-94.5193 706.648V770.338M-94.5193 706.648H-30.8294M-94.5193 770.338V834.028M-94.5193 770.338H-30.8294M-94.5193 834.028V897.718M-94.5193 834.028H-30.8294M-94.5193 897.718V961.408M-94.5193 897.718H-30.8294M-94.5193 961.408H-30.8294M-30.8294 -312.391V-248.701M-30.8294 -312.391H32.8605M-30.8294 -248.701V-185.011M-30.8294 -248.701H32.8605M-30.8294 -185.011V-121.321M-30.8294 -185.011H32.8605M-30.8294 -121.321V-57.6309M-30.8294 -121.321H32.8605M-30.8294 -57.6309V6.05899M-30.8294 -57.6309H32.8605M-30.8294 6.05899V69.7489M-30.8294 6.05899H32.8605M-30.8294 69.7489V133.439M-30.8294 69.7489H32.8605M-30.8294 133.439V197.129M-30.8294 133.439H32.8605M-30.8294 197.129V260.819M-30.8294 197.129H32.8605M-30.8294 260.819V324.509M-30.8294 260.819H32.8605M-30.8294 324.509V388.199M-30.8294 324.509H32.8605M-30.8294 388.199V451.888M-30.8294 388.199H32.8605M-30.8294 451.888V515.578M-30.8294 451.888H32.8605M-30.8294 515.578V579.268M-30.8294 515.578H32.8605M-30.8294 579.268V642.958M-30.8294 579.268H32.8605M-30.8294 642.958V706.648M-30.8294 642.958H32.8605M-30.8294 706.648V770.338M-30.8294 706.648H32.8605M-30.8294 770.338V834.028M-30.8294 770.338H32.8605M-30.8294 834.028V897.718M-30.8294 834.028H32.8605M-30.8294 897.718V961.408M-30.8294 897.718H32.8605M-30.8294 961.408H32.8605M32.8605 -312.391V-248.701M32.8605 -312.391H96.5505M32.8605 -248.701V-185.011M32.8605 -248.701H96.5505M32.8605 -185.011V-121.321M32.8605 -185.011H96.5505M32.8605 -121.321V-57.6309M32.8605 -121.321H96.5505M32.8605 -57.6309V6.05899M32.8605 -57.6309H96.5505M32.8605 6.05899V69.7489M32.8605 6.05899H96.5505M32.8605 69.7489V133.439M32.8605 69.7489H96.5505M32.8605 133.439V197.129M32.8605 133.439H96.5505M32.8605 197.129V260.819M32.8605 197.129H96.5505M32.8605 260.819V324.509M32.8605 260.819H96.5505M32.8605 324.509V388.199M32.8605 324.509H96.5505M32.8605 388.199V451.888M32.8605 388.199H96.5505M32.8605 451.888V515.578M32.8605 451.888H96.5505M32.8605 515.578V579.268M32.8605 515.578H96.5505M32.8605 579.268V642.958M32.8605 579.268H96.5505M32.8605 642.958V706.648M32.8605 642.958H96.5505M32.8605 706.648V770.338M32.8605 706.648H96.5505M32.8605 770.338V834.028M32.8605 770.338H96.5505M32.8605 834.028V897.718M32.8605 834.028H96.5505M32.8605 897.718V961.408M32.8605 897.718H96.5505M32.8605 961.408H96.5505M96.5505 -312.391V-248.701M96.5505 -312.391H160.24M96.5505 -248.701V-185.011M96.5505 -248.701H160.24M96.5505 -185.011V-121.321M96.5505 -185.011H160.24M96.5505 -121.321V-57.6309M96.5505 -121.321H160.24M96.5505 -57.6309V6.05899M96.5505 -57.6309H160.24M96.5505 6.05899V69.7489M96.5505 6.05899H160.24M96.5505 69.7489V133.439M96.5505 69.7489H160.24M96.5505 133.439V197.129M96.5505 133.439H160.24M96.5505 197.129V260.819M96.5505 197.129H160.24M96.5505 260.819V324.509M96.5505 260.819H160.24M96.5505 324.509V388.199M96.5505 324.509H160.24M96.5505 388.199V451.888M96.5505 388.199H160.24M96.5505 451.888V515.578M96.5505 451.888H160.24M96.5505 515.578V579.268M96.5505 515.578H160.24M96.5505 579.268V642.958M96.5505 579.268H160.24M96.5505 642.958V706.648M96.5505 642.958H160.24M96.5505 706.648V770.338M96.5505 706.648H160.24M96.5505 770.338V834.028M96.5505 770.338H160.24M96.5505 834.028V897.718M96.5505 834.028H160.24M96.5505 897.718V961.408M96.5505 897.718H160.24M96.5505 961.408H160.24M160.24 -312.391V-248.701M160.24 -312.391H223.93M160.24 -248.701V-185.011M160.24 -248.701H223.93M160.24 -185.011V-121.321M160.24 -185.011H223.93M160.24 -121.321V-57.6309M160.24 -121.321H223.93M160.24 -57.6309V6.05899M160.24 -57.6309H223.93M160.24 6.05899V69.7489M160.24 6.05899H223.93M160.24 69.7489V133.439M160.24 69.7489H223.93M160.24 133.439V197.129M160.24 133.439H223.93M160.24 197.129V260.819M160.24 197.129H223.93M160.24 260.819V324.509M160.24 260.819H223.93M160.24 324.509V388.199M160.24 324.509H223.93M160.24 388.199V451.888M160.24 388.199H223.93M160.24 451.888V515.578M160.24 451.888H223.93M160.24 515.578V579.268M160.24 515.578H223.93M160.24 579.268V642.958M160.24 579.268H223.93M160.24 642.958V706.648M160.24 642.958H223.93M160.24 706.648V770.338M160.24 706.648H223.93M160.24 770.338V834.028M160.24 770.338H223.93M160.24 834.028V897.718M160.24 834.028H223.93M160.24 897.718V961.408M160.24 897.718H223.93M160.24 961.408H223.93M223.93 -312.391V-248.701M223.93 -312.391H287.62M223.93 -248.701V-185.011M223.93 -248.701H287.62M223.93 -185.011V-121.321M223.93 -185.011H287.62M223.93 -121.321V-57.6309M223.93 -121.321H287.62M223.93 -57.6309V6.05899M223.93 -57.6309H287.62M223.93 6.05899V69.7489M223.93 6.05899H287.62M223.93 69.7489V133.439M223.93 69.7489H287.62M223.93 133.439V197.129M223.93 133.439H287.62M223.93 197.129V260.819M223.93 197.129H287.62M223.93 260.819V324.509M223.93 260.819H287.62M223.93 324.509V388.199M223.93 324.509H287.62M223.93 388.199V451.888M223.93 388.199H287.62M223.93 451.888V515.578M223.93 451.888H287.62M223.93 515.578V579.268M223.93 515.578H287.62M223.93 579.268V642.958M223.93 579.268H287.62M223.93 642.958V706.648M223.93 642.958H287.62M223.93 706.648V770.338M223.93 706.648H287.62M223.93 770.338V834.028M223.93 770.338H287.62M223.93 834.028V897.718M223.93 834.028H287.62M223.93 897.718V961.408M223.93 897.718H287.62M223.93 961.408H287.62M287.62 -312.391V-248.701M287.62 -312.391H351.31M287.62 -248.701V-185.011M287.62 -248.701H351.31M287.62 -185.011V-121.321M287.62 -185.011H351.31M287.62 -121.321V-57.6309M287.62 -121.321H351.31M287.62 -57.6309V6.05899M287.62 -57.6309H351.31M287.62 6.05899V69.7489M287.62 6.05899H351.31M287.62 69.7489V133.439M287.62 69.7489H351.31M287.62 133.439V197.129M287.62 133.439H351.31M287.62 197.129V260.819M287.62 197.129H351.31M287.62 260.819V324.509M287.62 260.819H351.31M287.62 324.509V388.199M287.62 324.509H351.31M287.62 388.199V451.888M287.62 388.199H351.31M287.62 451.888V515.578M287.62 451.888H351.31M287.62 515.578V579.268M287.62 515.578H351.31M287.62 579.268V642.958M287.62 579.268H351.31M287.62 642.958V706.648M287.62 642.958H351.31M287.62 706.648V770.338M287.62 706.648H351.31M287.62 770.338V834.028M287.62 770.338H351.31M287.62 834.028V897.718M287.62 834.028H351.31M287.62 897.718V961.408M287.62 897.718H351.31M287.62 961.408H351.31M351.31 -312.391V-248.701M351.31 -312.391H415M351.31 -248.701V-185.011M351.31 -248.701H415M351.31 -185.011V-121.321M351.31 -185.011H415M351.31 -121.321V-57.6309M351.31 -121.321H415M351.31 -57.6309V6.05899M351.31 -57.6309H415M351.31 6.05899V69.7489M351.31 6.05899H415M351.31 69.7489V133.439M351.31 69.7489H415M351.31 133.439V197.129M351.31 133.439H415M351.31 197.129V260.819M351.31 197.129H415M351.31 260.819V324.509M351.31 260.819H415M351.31 324.509V388.199M351.31 324.509H415M351.31 388.199V451.888M351.31 388.199H415M351.31 451.888V515.578M351.31 451.888H415M351.31 515.578V579.268M351.31 515.578H415M351.31 579.268V642.958M351.31 579.268H415M351.31 642.958V706.648M351.31 642.958H415M351.31 706.648V770.338M351.31 706.648H415M351.31 770.338V834.028M351.31 770.338H415M351.31 834.028V897.718M351.31 834.028H415M351.31 897.718V961.408M351.31 897.718H415M351.31 961.408H415M415 -312.391V-248.701M415 -312.391H478.69M415 -248.701V-185.011M415 -248.701H478.69M415 -185.011V-121.321M415 -185.011H478.69M415 -121.321V-57.6309M415 -121.321H478.69M415 -57.6309V6.05899M415 -57.6309H478.69M415 6.05899V69.7489M415 6.05899H478.69M415 69.7489V133.439M415 69.7489H478.69M415 133.439V197.129M415 133.439H478.69M415 197.129V260.819M415 197.129H478.69M415 260.819V324.509M415 260.819H478.69M415 324.509V388.199M415 324.509H478.69M415 388.199V451.888M415 388.199H478.69M415 451.888V515.578M415 451.888H478.69M415 515.578V579.268M415 515.578H478.69M415 579.268V642.958M415 579.268H478.69M415 642.958V706.648M415 642.958H478.69M415 706.648V770.338M415 706.648H478.69M415 770.338V834.028M415 770.338H478.69M415 834.028V897.718M415 834.028H478.69M415 897.718V961.408M415 897.718H478.69M415 961.408H478.69M478.69 -312.391V-248.701M478.69 -312.391H542.38M478.69 -248.701V-185.011M478.69 -248.701H542.38M478.69 -185.011V-121.321M478.69 -185.011H542.38M478.69 -121.321V-57.6309M478.69 -121.321H542.38M478.69 -57.6309V6.05899M478.69 -57.6309H542.38M478.69 6.05899V69.7489M478.69 6.05899H542.38M478.69 69.7489V133.439M478.69 69.7489H542.38M478.69 133.439V197.129M478.69 133.439H542.38M478.69 197.129V260.819M478.69 197.129H542.38M478.69 260.819V324.509M478.69 260.819H542.38M478.69 324.509V388.199M478.69 324.509H542.38M478.69 388.199V451.888M478.69 388.199H542.38M478.69 451.888V515.578M478.69 451.888H542.38M478.69 515.578V579.268M478.69 515.578H542.38M478.69 579.268V642.958M478.69 579.268H542.38M478.69 642.958V706.648M478.69 642.958H542.38M478.69 706.648V770.338M478.69 706.648H542.38M478.69 770.338V834.028M478.69 770.338H542.38M478.69 834.028V897.718M478.69 834.028H542.38M478.69 897.718V961.408M478.69 897.718H542.38M478.69 961.408H542.38M542.38 -312.391V-248.701M542.38 -312.391H606.07M542.38 -248.701V-185.011M542.38 -248.701H606.07M542.38 -185.011V-121.321M542.38 -185.011H606.07M542.38 -121.321V-57.6309M542.38 -121.321H606.07M542.38 -57.6309V6.05899M542.38 -57.6309H606.07M542.38 6.05899V69.7489M542.38 6.05899H606.07M542.38 69.7489V133.439M542.38 69.7489H606.07M542.38 133.439V197.129M542.38 133.439H606.07M542.38 197.129V260.819M542.38 197.129H606.07M542.38 260.819V324.509M542.38 260.819H606.07M542.38 324.509V388.199M542.38 324.509H606.07M542.38 388.199V451.888M542.38 388.199H606.07M542.38 451.888V515.578M542.38 451.888H606.07M542.38 515.578V579.268M542.38 515.578H606.07M542.38 579.268V642.958M542.38 579.268H606.07M542.38 642.958V706.648M542.38 642.958H606.07M542.38 706.648V770.338M542.38 706.648H606.07M542.38 770.338V834.028M542.38 770.338H606.07M542.38 834.028V897.718M542.38 834.028H606.07M542.38 897.718V961.408M542.38 897.718H606.07M542.38 961.408H606.07M606.07 -312.391V-248.701M606.07 -312.391H669.76M606.07 -248.701V-185.011M606.07 -248.701H669.76M606.07 -185.011V-121.321M606.07 -185.011H669.76M606.07 -121.321V-57.6309M606.07 -121.321H669.76M606.07 -57.6309V6.05899M606.07 -57.6309H669.76M606.07 6.05899V69.7489M606.07 6.05899H669.76M606.07 69.7489V133.439M606.07 69.7489H669.76M606.07 133.439V197.129M606.07 133.439H669.76M606.07 197.129V260.819M606.07 197.129H669.76M606.07 260.819V324.509M606.07 260.819H669.76M606.07 324.509V388.199M606.07 324.509H669.76M606.07 388.199V451.888M606.07 388.199H669.76M606.07 451.888V515.578M606.07 451.888H669.76M606.07 515.578V579.268M606.07 515.578H669.76M606.07 579.268V642.958M606.07 579.268H669.76M606.07 642.958V706.648M606.07 642.958H669.76M606.07 706.648V770.338M606.07 706.648H669.76M606.07 770.338V834.028M606.07 770.338H669.76M606.07 834.028V897.718M606.07 834.028H669.76M606.07 897.718V961.408M606.07 897.718H669.76M606.07 961.408H669.76M669.76 -312.391V-248.701M669.76 -312.391H733.45M669.76 -248.701V-185.011M669.76 -248.701H733.45M669.76 -185.011V-121.321M669.76 -185.011H733.45M669.76 -121.321V-57.6309M669.76 -121.321H733.45M669.76 -57.6309V6.05899M669.76 -57.6309H733.45M669.76 6.05899V69.7489M669.76 6.05899H733.45M669.76 69.7489V133.439M669.76 69.7489H733.45M669.76 133.439V197.129M669.76 133.439H733.45M669.76 197.129V260.819M669.76 197.129H733.45M669.76 260.819V324.509M669.76 260.819H733.45M669.76 324.509V388.199M669.76 324.509H733.45M669.76 388.199V451.888M669.76 388.199H733.45M669.76 451.888V515.578M669.76 451.888H733.45M669.76 515.578V579.268M669.76 515.578H733.45M669.76 579.268V642.958M669.76 579.268H733.45M669.76 642.958V706.648M669.76 642.958H733.45M669.76 706.648V770.338M669.76 706.648H733.45M669.76 770.338V834.028M669.76 770.338H733.45M669.76 834.028V897.718M669.76 834.028H733.45M669.76 897.718V961.408M669.76 897.718H733.45M669.76 961.408H733.45M733.45 -312.391V-248.701M733.45 -312.391H797.14M733.45 -248.701V-185.011M733.45 -248.701H797.14M733.45 -185.011V-121.321M733.45 -185.011H797.14M733.45 -121.321V-57.6309M733.45 -121.321H797.14M733.45 -57.6309V6.05899M733.45 -57.6309H797.14M733.45 6.05899V69.7489M733.45 6.05899H797.14M733.45 69.7489V133.439M733.45 69.7489H797.14M733.45 133.439V197.129M733.45 133.439H797.14M733.45 197.129V260.819M733.45 197.129H797.14M733.45 260.819V324.509M733.45 260.819H797.14M733.45 324.509V388.199M733.45 324.509H797.14M733.45 388.199V451.888M733.45 388.199H797.14M733.45 451.888V515.578M733.45 451.888H797.14M733.45 515.578V579.268M733.45 515.578H797.14M733.45 579.268V642.958M733.45 579.268H797.14M733.45 642.958V706.648M733.45 642.958H797.14M733.45 706.648V770.338M733.45 706.648H797.14M733.45 770.338V834.028M733.45 770.338H797.14M733.45 834.028V897.718M733.45 834.028H797.14M733.45 897.718V961.408M733.45 897.718H797.14M733.45 961.408H797.14M797.14 -312.391V-248.701M797.14 -312.391H860.83M797.14 -248.701V-185.011M797.14 -248.701H860.83M797.14 -185.011V-121.321M797.14 -185.011H860.83M797.14 -121.321V-57.6309M797.14 -121.321H860.83M797.14 -57.6309V6.05899M797.14 -57.6309H860.83M797.14 6.05899V69.7489M797.14 6.05899H860.83M797.14 69.7489V133.439M797.14 69.7489H860.83M797.14 133.439V197.129M797.14 133.439H860.83M797.14 197.129V260.819M797.14 197.129H860.83M797.14 260.819V324.509M797.14 260.819H860.83M797.14 324.509V388.199M797.14 324.509H860.83M797.14 388.199V451.888M797.14 388.199H860.83M797.14 451.888V515.578M797.14 451.888H860.83M797.14 515.578V579.268M797.14 515.578H860.83M797.14 579.268V642.958M797.14 579.268H860.83M797.14 642.958V706.648M797.14 642.958H860.83M797.14 706.648V770.338M797.14 706.648H860.83M797.14 770.338V834.028M797.14 770.338H860.83M797.14 834.028V897.718M797.14 834.028H860.83M797.14 897.718V961.408M797.14 897.718H860.83M797.14 961.408H860.83M860.83 -312.391V-248.701M860.83 -312.391H924.519M860.83 -248.701V-185.011M860.83 -248.701H924.519M860.83 -185.011V-121.321M860.83 -185.011H924.519M860.83 -121.321V-57.6309M860.83 -121.321H924.519M860.83 -57.6309V6.05899M860.83 -57.6309H924.519M860.83 6.05899V69.7489M860.83 6.05899H924.519M860.83 69.7489V133.439M860.83 69.7489H924.519M860.83 133.439V197.129M860.83 133.439H924.519M860.83 197.129V260.819M860.83 197.129H924.519M860.83 260.819V324.509M860.83 260.819H924.519M860.83 324.509V388.199M860.83 324.509H924.519M860.83 388.199V451.888M860.83 388.199H924.519M860.83 451.888V515.578M860.83 451.888H924.519M860.83 515.578V579.268M860.83 515.578H924.519M860.83 579.268V642.958M860.83 579.268H924.519M860.83 642.958V706.648M860.83 642.958H924.519M860.83 706.648V770.338M860.83 706.648H924.519M860.83 770.338V834.028M860.83 770.338H924.519M860.83 834.028V897.718M860.83 834.028H924.519M860.83 897.718V961.408M860.83 897.718H924.519M860.83 961.408H924.519M924.519 -312.391V-248.701M924.519 -312.391H988.209M924.519 -248.701V-185.011M924.519 -248.701H988.209M924.519 -185.011V-121.321M924.519 -185.011H988.209M924.519 -121.321V-57.6309M924.519 -121.321H988.209M924.519 -57.6309V6.05899M924.519 -57.6309H988.209M924.519 6.05899V69.7489M924.519 6.05899H988.209M924.519 69.7489V133.439M924.519 69.7489H988.209M924.519 133.439V197.129M924.519 133.439H988.209M924.519 197.129V260.819M924.519 197.129H988.209M924.519 260.819V324.509M924.519 260.819H988.209M924.519 324.509V388.199M924.519 324.509H988.209M924.519 388.199V451.888M924.519 388.199H988.209M924.519 451.888V515.578M924.519 451.888H988.209M924.519 515.578V579.268M924.519 515.578H988.209M924.519 579.268V642.958M924.519 579.268H988.209M924.519 642.958V706.648M924.519 642.958H988.209M924.519 706.648V770.338M924.519 706.648H988.209M924.519 770.338V834.028M924.519 770.338H988.209M924.519 834.028V897.718M924.519 834.028H988.209M924.519 897.718V961.408M924.519 897.718H988.209M924.519 961.408H988.209M988.209 -312.391V-248.701M988.209 -312.391H1051.9M988.209 -248.701V-185.011M988.209 -248.701H1051.9M988.209 -185.011V-121.321M988.209 -185.011H1051.9M988.209 -121.321V-57.6309M988.209 -121.321H1051.9M988.209 -57.6309V6.05899M988.209 -57.6309H1051.9M988.209 6.05899V69.7489M988.209 6.05899H1051.9M988.209 69.7489V133.439M988.209 69.7489H1051.9M988.209 133.439V197.129M988.209 133.439H1051.9M988.209 197.129V260.819M988.209 197.129H1051.9M988.209 260.819V324.509M988.209 260.819H1051.9M988.209 324.509V388.199M988.209 324.509H1051.9M988.209 388.199V451.888M988.209 388.199H1051.9M988.209 451.888V515.578M988.209 451.888H1051.9M988.209 515.578V579.268M988.209 515.578H1051.9M988.209 579.268V642.958M988.209 579.268H1051.9M988.209 642.958V706.648M988.209 642.958H1051.9M988.209 706.648V770.338M988.209 706.648H1051.9M988.209 770.338V834.028M988.209 770.338H1051.9M988.209 834.028V897.718M988.209 834.028H1051.9M988.209 897.718V961.408M988.209 897.718H1051.9M988.209 961.408H1051.9M1051.9 -312.391V-248.701M1051.9 -312.391H1115.59M1051.9 -248.701V-185.011M1051.9 -248.701H1115.59M1051.9 -185.011V-121.321M1051.9 -185.011H1115.59M1051.9 -121.321V-57.6309M1051.9 -121.321H1115.59M1051.9 -57.6309V6.05899M1051.9 -57.6309H1115.59M1051.9 6.05899V69.7489M1051.9 6.05899H1115.59M1051.9 69.7489V133.439M1051.9 69.7489H1115.59M1051.9 133.439V197.129M1051.9 133.439H1115.59M1051.9 197.129V260.819M1051.9 197.129H1115.59M1051.9 260.819V324.509M1051.9 260.819H1115.59M1051.9 324.509V388.199M1051.9 324.509H1115.59M1051.9 388.199V451.888M1051.9 388.199H1115.59M1051.9 451.888V515.578M1051.9 451.888H1115.59M1051.9 515.578V579.268M1051.9 515.578H1115.59M1051.9 579.268V642.958M1051.9 579.268H1115.59M1051.9 642.958V706.648M1051.9 642.958H1115.59M1051.9 706.648V770.338M1051.9 706.648H1115.59M1051.9 770.338V834.028M1051.9 770.338H1115.59M1051.9 834.028V897.718M1051.9 834.028H1115.59M1051.9 897.718V961.408M1051.9 897.718H1115.59M1051.9 961.408H1115.59M1115.59 -312.391V-248.701M1115.59 -312.391H1179.28M1115.59 -248.701V-185.011M1115.59 -248.701H1179.28M1115.59 -185.011V-121.321M1115.59 -185.011H1179.28M1115.59 -121.321V-57.6309M1115.59 -121.321H1179.28M1115.59 -57.6309V6.05899M1115.59 -57.6309H1179.28M1115.59 6.05899V69.7489M1115.59 6.05899H1179.28M1115.59 69.7489V133.439M1115.59 69.7489H1179.28M1115.59 133.439V197.129M1115.59 133.439H1179.28M1115.59 197.129V260.819M1115.59 197.129H1179.28M1115.59 260.819V324.509M1115.59 260.819H1179.28M1115.59 324.509V388.199M1115.59 324.509H1179.28M1115.59 388.199V451.888M1115.59 388.199H1179.28M1115.59 451.888V515.578M1115.59 451.888H1179.28M1115.59 515.578V579.268M1115.59 515.578H1179.28M1115.59 579.268V642.958M1115.59 579.268H1179.28M1115.59 642.958V706.648M1115.59 642.958H1179.28M1115.59 706.648V770.338M1115.59 706.648H1179.28M1115.59 770.338V834.028M1115.59 770.338H1179.28M1115.59 834.028V897.718M1115.59 834.028H1179.28M1115.59 897.718V961.408M1115.59 897.718H1179.28M1115.59 961.408H1179.28M1179.28 -312.391V-248.701M1179.28 -312.391H1242.97M1179.28 -248.701V-185.011M1179.28 -248.701H1242.97M1179.28 -185.011V-121.321M1179.28 -185.011H1242.97M1179.28 -121.321V-57.6309M1179.28 -121.321H1242.97M1179.28 -57.6309V6.05899M1179.28 -57.6309H1242.97M1179.28 6.05899V69.7489M1179.28 6.05899H1242.97M1179.28 69.7489V133.439M1179.28 69.7489H1242.97M1179.28 133.439V197.129M1179.28 133.439H1242.97M1179.28 197.129V260.819M1179.28 197.129H1242.97M1179.28 260.819V324.509M1179.28 260.819H1242.97M1179.28 324.509V388.199M1179.28 324.509H1242.97M1179.28 388.199V451.888M1179.28 388.199H1242.97M1179.28 451.888V515.578M1179.28 451.888H1242.97M1179.28 515.578V579.268M1179.28 515.578H1242.97M1179.28 579.268V642.958M1179.28 579.268H1242.97M1179.28 642.958V706.648M1179.28 642.958H1242.97M1179.28 706.648V770.338M1179.28 706.648H1242.97M1179.28 770.338V834.028M1179.28 770.338H1242.97M1179.28 834.028V897.718M1179.28 834.028H1242.97M1179.28 897.718V961.408M1179.28 897.718H1242.97M1179.28 961.408H1242.97M1242.97 -312.391V-248.701M1242.97 -312.391H1306.66M1242.97 -248.701V-185.011M1242.97 -248.701H1306.66M1242.97 -185.011V-121.321M1242.97 -185.011H1306.66M1242.97 -121.321V-57.6309M1242.97 -121.321H1306.66M1242.97 -57.6309V6.05899M1242.97 -57.6309H1306.66M1242.97 6.05899V69.7489M1242.97 6.05899H1306.66M1242.97 69.7489V133.439M1242.97 69.7489H1306.66M1242.97 133.439V197.129M1242.97 133.439H1306.66M1242.97 197.129V260.819M1242.97 197.129H1306.66M1242.97 260.819V324.509M1242.97 260.819H1306.66M1242.97 324.509V388.199M1242.97 324.509H1306.66M1242.97 388.199V451.888M1242.97 388.199H1306.66M1242.97 451.888V515.578M1242.97 451.888H1306.66M1242.97 515.578V579.268M1242.97 515.578H1306.66M1242.97 579.268V642.958M1242.97 579.268H1306.66M1242.97 642.958V706.648M1242.97 642.958H1306.66M1242.97 706.648V770.338M1242.97 706.648H1306.66M1242.97 770.338V834.028M1242.97 770.338H1306.66M1242.97 834.028V897.718M1242.97 834.028H1306.66M1242.97 897.718V961.408M1242.97 897.718H1306.66M1242.97 961.408H1306.66M1306.66 -312.391V-248.701M1306.66 -312.391H1370.35M1306.66 -248.701V-185.011M1306.66 -248.701H1370.35M1306.66 -185.011V-121.321M1306.66 -185.011H1370.35M1306.66 -121.321V-57.6309M1306.66 -121.321H1370.35M1306.66 -57.6309V6.05899M1306.66 -57.6309H1370.35M1306.66 6.05899V69.7489M1306.66 6.05899H1370.35M1306.66 69.7489V133.439M1306.66 69.7489H1370.35M1306.66 133.439V197.129M1306.66 133.439H1370.35M1306.66 197.129V260.819M1306.66 197.129H1370.35M1306.66 260.819V324.509M1306.66 260.819H1370.35M1306.66 324.509V388.199M1306.66 324.509H1370.35M1306.66 388.199V451.888M1306.66 388.199H1370.35M1306.66 451.888V515.578M1306.66 451.888H1370.35M1306.66 515.578V579.268M1306.66 515.578H1370.35M1306.66 579.268V642.958M1306.66 579.268H1370.35M1306.66 642.958V706.648M1306.66 642.958H1370.35M1306.66 706.648V770.338M1306.66 706.648H1370.35M1306.66 770.338V834.028M1306.66 770.338H1370.35M1306.66 834.028V897.718M1306.66 834.028H1370.35M1306.66 897.718V961.408M1306.66 897.718H1370.35M1306.66 961.408H1370.35M1370.35 -312.391V-248.701M1370.35 -312.391H1434.04M1370.35 -248.701V-185.011M1370.35 -248.701H1434.04M1370.35 -185.011V-121.321M1370.35 -185.011H1434.04M1370.35 -121.321V-57.6309M1370.35 -121.321H1434.04M1370.35 -57.6309V6.05899M1370.35 -57.6309H1434.04M1370.35 6.05899V69.7489M1370.35 6.05899H1434.04M1370.35 69.7489V133.439M1370.35 69.7489H1434.04M1370.35 133.439V197.129M1370.35 133.439H1434.04M1370.35 197.129V260.819M1370.35 197.129H1434.04M1370.35 260.819V324.509M1370.35 260.819H1434.04M1370.35 324.509V388.199M1370.35 324.509H1434.04M1370.35 388.199V451.888M1370.35 388.199H1434.04M1370.35 451.888V515.578M1370.35 451.888H1434.04M1370.35 515.578V579.268M1370.35 515.578H1434.04M1370.35 579.268V642.958M1370.35 579.268H1434.04M1370.35 642.958V706.648M1370.35 642.958H1434.04M1370.35 706.648V770.338M1370.35 706.648H1434.04M1370.35 770.338V834.028M1370.35 770.338H1434.04M1370.35 834.028V897.718M1370.35 834.028H1434.04M1370.35 897.718V961.408M1370.35 897.718H1434.04M1370.35 961.408H1434.04M1434.04 -312.391V-248.701M1434.04 -312.391H1497.73M1434.04 -248.701V-185.011M1434.04 -248.701H1497.73M1434.04 -185.011V-121.321M1434.04 -185.011H1497.73M1434.04 -121.321V-57.6309M1434.04 -121.321H1497.73M1434.04 -57.6309V6.05899M1434.04 -57.6309H1497.73M1434.04 6.05899V69.7489M1434.04 6.05899H1497.73M1434.04 69.7489V133.439M1434.04 69.7489H1497.73M1434.04 133.439V197.129M1434.04 133.439H1497.73M1434.04 197.129V260.819M1434.04 197.129H1497.73M1434.04 260.819V324.509M1434.04 260.819H1497.73M1434.04 324.509V388.199M1434.04 324.509H1497.73M1434.04 388.199V451.888M1434.04 388.199H1497.73M1434.04 451.888V515.578M1434.04 451.888H1497.73M1434.04 515.578V579.268M1434.04 515.578H1497.73M1434.04 579.268V642.958M1434.04 579.268H1497.73M1434.04 642.958V706.648M1434.04 642.958H1497.73M1434.04 706.648V770.338M1434.04 706.648H1497.73M1434.04 770.338V834.028M1434.04 770.338H1497.73M1434.04 834.028V897.718M1434.04 834.028H1497.73M1434.04 897.718V961.408M1434.04 897.718H1497.73M1434.04 961.408H1497.73M1497.73 -312.391V-248.701M1497.73 -312.391H1561.42M1497.73 -248.701V-185.011M1497.73 -248.701H1561.42M1497.73 -185.011V-121.321M1497.73 -185.011H1561.42M1497.73 -121.321V-57.6309M1497.73 -121.321H1561.42M1497.73 -57.6309V6.05899M1497.73 -57.6309H1561.42M1497.73 6.05899V69.7489M1497.73 6.05899H1561.42M1497.73 69.7489V133.439M1497.73 69.7489H1561.42M1497.73 133.439V197.129M1497.73 133.439H1561.42M1497.73 197.129V260.819M1497.73 197.129H1561.42M1497.73 260.819V324.509M1497.73 260.819H1561.42M1497.73 324.509V388.199M1497.73 324.509H1561.42M1497.73 388.199V451.888M1497.73 388.199H1561.42M1497.73 451.888V515.578M1497.73 451.888H1561.42M1497.73 515.578V579.268M1497.73 515.578H1561.42M1497.73 579.268V642.958M1497.73 579.268H1561.42M1497.73 642.958V706.648M1497.73 642.958H1561.42M1497.73 706.648V770.338M1497.73 706.648H1561.42M1497.73 770.338V834.028M1497.73 770.338H1561.42M1497.73 834.028V897.718M1497.73 834.028H1561.42M1497.73 897.718V961.408M1497.73 897.718H1561.42M1497.73 961.408H1561.42M1561.42 -312.391V-248.701M1561.42 -312.391H1625.11M1561.42 -248.701V-185.011M1561.42 -248.701H1625.11M1561.42 -185.011V-121.321M1561.42 -185.011H1625.11M1561.42 -121.321V-57.6309M1561.42 -121.321H1625.11M1561.42 -57.6309V6.05899M1561.42 -57.6309H1625.11M1561.42 6.05899V69.7489M1561.42 6.05899H1625.11M1561.42 69.7489V133.439M1561.42 69.7489H1625.11M1561.42 133.439V197.129M1561.42 133.439H1625.11M1561.42 197.129V260.819M1561.42 197.129H1625.11M1561.42 260.819V324.509M1561.42 260.819H1625.11M1561.42 324.509V388.199M1561.42 324.509H1625.11M1561.42 388.199V451.888M1561.42 388.199H1625.11M1561.42 451.888V515.578M1561.42 451.888H1625.11M1561.42 515.578V579.268M1561.42 515.578H1625.11M1561.42 579.268V642.958M1561.42 579.268H1625.11M1561.42 642.958V706.648M1561.42 642.958H1625.11M1561.42 706.648V770.338M1561.42 706.648H1625.11M1561.42 770.338V834.028M1561.42 770.338H1625.11M1561.42 834.028V897.718M1561.42 834.028H1625.11M1561.42 897.718V961.408M1561.42 897.718H1625.11M1561.42 961.408H1625.11M1625.11 -312.391V-248.701M1625.11 -312.391H1688.8M1625.11 -248.701V-185.011M1625.11 -248.701H1688.8M1625.11 -185.011V-121.321M1625.11 -185.011H1688.8M1625.11 -121.321V-57.6309M1625.11 -121.321H1688.8M1625.11 -57.6309V6.05899M1625.11 -57.6309H1688.8M1625.11 6.05899V69.7489M1625.11 6.05899H1688.8M1625.11 69.7489V133.439M1625.11 69.7489H1688.8M1625.11 133.439V197.129M1625.11 133.439H1688.8M1625.11 197.129V260.819M1625.11 197.129H1688.8M1625.11 260.819V324.509M1625.11 260.819H1688.8M1625.11 324.509V388.199M1625.11 324.509H1688.8M1625.11 388.199V451.888M1625.11 388.199H1688.8M1625.11 451.888V515.578M1625.11 451.888H1688.8M1625.11 515.578V579.268M1625.11 515.578H1688.8M1625.11 579.268V642.958M1625.11 579.268H1688.8M1625.11 642.958V706.648M1625.11 642.958H1688.8M1625.11 706.648V770.338M1625.11 706.648H1688.8M1625.11 770.338V834.028M1625.11 770.338H1688.8M1625.11 834.028V897.718M1625.11 834.028H1688.8M1625.11 897.718V961.408M1625.11 897.718H1688.8M1625.11 961.408H1688.8M1688.8 -312.391V-248.701M1688.8 -312.391H1752.49M1688.8 -248.701V-185.011M1688.8 -248.701H1752.49M1688.8 -185.011V-121.321M1688.8 -185.011H1752.49M1688.8 -121.321V-57.6309M1688.8 -121.321H1752.49M1688.8 -57.6309V6.05899M1688.8 -57.6309H1752.49M1688.8 6.05899V69.7489M1688.8 6.05899H1752.49M1688.8 69.7489V133.439M1688.8 69.7489H1752.49M1688.8 133.439V197.129M1688.8 133.439H1752.49M1688.8 197.129V260.819M1688.8 197.129H1752.49M1688.8 260.819V324.509M1688.8 260.819H1752.49M1688.8 324.509V388.199M1688.8 324.509H1752.49M1688.8 388.199V451.888M1688.8 388.199H1752.49M1688.8 451.888V515.578M1688.8 451.888H1752.49M1688.8 515.578V579.268M1688.8 515.578H1752.49M1688.8 579.268V642.958M1688.8 579.268H1752.49M1688.8 642.958V706.648M1688.8 642.958H1752.49M1688.8 706.648V770.338M1688.8 706.648H1752.49M1688.8 770.338V834.028M1688.8 770.338H1752.49M1688.8 834.028V897.718M1688.8 834.028H1752.49M1688.8 897.718V961.408M1688.8 897.718H1752.49M1688.8 961.408H1752.49M1752.49 -312.391V-248.701M1752.49 -312.391H1816.18V-248.701M1752.49 -248.701V-185.011M1752.49 -248.701H1816.18M1752.49 -185.011V-121.321M1752.49 -185.011H1816.18M1752.49 -121.321V-57.6309M1752.49 -121.321H1816.18M1752.49 -57.6309V6.05899M1752.49 -57.6309H1816.18M1752.49 6.05899V69.7489M1752.49 6.05899H1816.18M1752.49 69.7489V133.439M1752.49 69.7489H1816.18M1752.49 133.439V197.129M1752.49 133.439H1816.18M1752.49 197.129V260.819M1752.49 197.129H1816.18M1752.49 260.819V324.509M1752.49 260.819H1816.18M1752.49 324.509V388.199M1752.49 324.509H1816.18M1752.49 388.199V451.888M1752.49 388.199H1816.18M1752.49 451.888V515.578M1752.49 451.888H1816.18M1752.49 515.578V579.268M1752.49 515.578H1816.18M1752.49 579.268V642.958M1752.49 579.268H1816.18M1752.49 642.958V706.648M1752.49 642.958H1816.18M1752.49 706.648V770.338M1752.49 706.648H1816.18M1752.49 770.338V834.028M1752.49 770.338H1816.18M1752.49 834.028V897.718M1752.49 834.028H1816.18M1752.49 897.718V961.408M1752.49 897.718H1816.18M1752.49 961.408H1816.18V897.718M1816.18 -248.701V-185.011M1816.18 -185.011V-121.321M1816.18 -121.321V-57.6309M1816.18 -57.6309V6.05899M1816.18 6.05899V69.7489M1816.18 69.7489V133.439M1816.18 133.439V197.129M1816.18 197.129V260.819M1816.18 260.819V324.509M1816.18 324.509V388.199M1816.18 388.199V451.888M1816.18 451.888V515.578M1816.18 515.578V579.268M1816.18 579.268V642.958M1816.18 642.958V706.648M1816.18 706.648V770.338M1816.18 770.338V834.028M1816.18 834.028V897.718" stroke="url(#paint0_radial_0_1)" stroke-width="0.796124"/>
</g>
<g clip-path="url(#clip2_0_1)">
<mask id="mask0_0_1" style="mask-type:luminance" maskUnits="userSpaceOnUse" x="-545" y="-64" width="805" height="608">
<path d="M260 -64H-545V544H260V-64Z" fill="white"/>
</mask>
<g mask="url(#mask0_0_1)">
<g opacity="0.32" filter="url(#filter0_f_0_1)">
<path d="M-620.074 -444.376L-644.915 -419.535L-209.108 16.2726L94.929 305.691L-184.267 -8.56836L-620.074 -444.376Z" fill="url(#paint1_linear_0_1)"/>
</g>
<g opacity="0.32" filter="url(#filter1_f_0_1)">
<path d="M-540.568 -551L-565.409 -526.159L-129.602 -90.3516L174.434 199.067L-104.761 -115.193L-540.568 -551Z" fill="url(#paint2_linear_0_1)"/>
</g>
</g>
</g>
<g filter="url(#filter2_bd_0_1)">
<mask id="path-9-inside-1_0_1" fill="white">
<path d="M-12 3C-12 -5.83656 -4.83656 -13 4 -13H826C834.837 -13 842 -5.83656 842 3V37C842 45.8366 834.837 53 826 53H3.99999C-4.83657 53 -12 45.8366 -12 37V3Z"/>
</mask>
<path d="M-12 3C-12 -5.83656 -4.83656 -13 4 -13H826C834.837 -13 842 -5.83656 842 3V37C842 45.8366 834.837 53 826 53H3.99999C-4.83657 53 -12 45.8366 -12 37V3Z" fill="url(#paint3_linear_0_1)" shape-rendering="crispEdges"/>
<path d="M-12 3C-12 -5.83656 -4.83656 -13 4 -13H826C834.837 -13 842 -5.83656 842 3V37C842 45.8366 834.837 53 826 53H3.99999C-4.83657 53 -12 45.8366 -12 37V3Z" fill="white" fill-opacity="0.8" shape-rendering="crispEdges"/>
<path d="M-12 -13H842H-12ZM842 37C842 46.3888 834.389 54 825 54H5C-4.38884 54 -12 46.3888 -12 37C-12 45.2843 -4.83656 52 4 52H826C834.837 52 842 45.2843 842 37ZM-12 53V-13V53ZM842 -13V53V-13Z" fill="url(#paint4_linear_0_1)" fill-opacity="0.5" mask="url(#path-9-inside-1_0_1)"/>
<rect width="40.0002" height="40" rx="10.7541" fill="#9752FC "/>
<path d="M30.7544 11.082H11.6068C10.303 11.082 9.24609 12.1389 9.24609 13.4427V17.5738H30.7544V11.082Z" fill="white"/>
<path d="M30.6886 11.1476V17.5738H24.2624V11.1476H30.6886ZM30.7542 11.082H24.1968V17.6394H30.7542V11.082Z" fill="white"/>
<path d="M9.24609 25.7051C20.033 25.7051 20.033 14.3608 30.7544 14.3608L9.24609 25.7051Z" fill="white"/>
<path d="M9.24609 25.7051C20.033 25.7051 20.033 14.3608 30.7544 14.3608" stroke="white" stroke-width="6.55739" stroke-miterlimit="10"/>
<path d="M24.1968 25.0497C24.1968 23.6011 25.3711 22.4268 26.8197 22.4268H28.1312C29.5798 22.4268 30.7542 23.6011 30.7542 25.0497V26.3612C30.7542 27.8098 29.5798 28.9841 28.1312 28.9841H24.4591C24.3142 28.9841 24.1968 28.8667 24.1968 28.7218V25.0497Z" fill="white"/>
</g>
</g>
<defs>
<filter id="filter0_f_0_1" x="-724.915" y="-524.376" width="899.844" height="910.067" filterUnits="userSpaceOnUse" color-interpolation-filters="sRGB">
<feFlood flood-opacity="0" result="BackgroundImageFix"/>
<feBlend mode="normal" in="SourceGraphic" in2="BackgroundImageFix" result="shape"/>
<feGaussianBlur stdDeviation="40" result="effect1_foregroundBlur_0_1"/>
</filter>
<filter id="filter1_f_0_1" x="-645.409" y="-631" width="899.843" height="910.067" filterUnits="userSpaceOnUse" color-interpolation-filters="sRGB">
<feFlood flood-opacity="0" result="BackgroundImageFix"/>
<feBlend mode="normal" in="SourceGraphic" in2="BackgroundImageFix" result="shape"/>
<feGaussianBlur stdDeviation="40" result="effect1_foregroundBlur_0_1"/>
</filter>
<filter id="filter2_bd_0_1" x="-30" y="-31" width="890" height="102" filterUnits="userSpaceOnUse" color-interpolation-filters="sRGB">
<feFlood flood-opacity="0" result="BackgroundImageFix"/>
<feGaussianBlur in="BackgroundImageFix" stdDeviation="9"/>
<feComposite in2="SourceAlpha" operator="in" result="effect1_backgroundBlur_0_1"/>
<feColorMatrix in="SourceAlpha" type="matrix" values="0 0 0 0 0 0 0 0 0 0 0 0 0 0 0 0 0 0 127 0" result="hardAlpha"/>
<feOffset dy="4"/>
<feGaussianBlur stdDeviation="6"/>
<feComposite in2="hardAlpha" operator="out"/>
<feColorMatrix type="matrix" values="0 0 0 0 0 0 0 0 0 0 0 0 0 0 0 0 0 0 0.08 0"/>
<feBlend mode="normal" in2="effect1_backgroundBlur_0_1" result="effect2_dropShadow_0_1"/>
<feBlend mode="normal" in="SourceGraphic" in2="effect2_dropShadow_0_1" result="shape"/>
</filter>
<radialGradient id="paint0_radial_0_1" cx="0" cy="0" r="1" gradientUnits="userSpaceOnUse" gradientTransform="translate(415 324.509) rotate(90) scale(636.899 1401.18)">
<stop offset="0.329443" stop-color="#E7E7EF"/>
<stop offset="0.869558" stop-color="#E7E7EF" stop-opacity="0"/>
</radialGradient>
<linearGradient id="paint1_linear_0_1" x1="-632.495" y1="-431.955" x2="-196.687" y2="3.85212" gradientUnits="userSpaceOnUse">
<stop stop-color="white"/>
<stop offset="1" stop-color="#D3D8DF"/>
</linearGradient>
<linearGradient id="paint2_linear_0_1" x1="-552.989" y1="-538.579" x2="-117.181" y2="-102.772" gradientUnits="userSpaceOnUse">
<stop stop-color="white"/>
<stop offset="1" stop-color="#D3D8DF"/>
</linearGradient>
<linearGradient id="paint3_linear_0_1" x1="415" y1="-13" x2="415" y2="53" gradientUnits="userSpaceOnUse">
<stop stop-color="white"/>
<stop offset="1" stop-opacity="0"/>
</linearGradient>
<linearGradient id="paint4_linear_0_1" x1="-12" y1="53.0001" x2="842" y2="53.0001" gradientUnits="userSpaceOnUse">
<stop stop-color="#B675FF" stop-opacity="0"/>
<stop offset="0.494792" stop-color="#B675FF"/>
<stop offset="0.963542" stop-color="#B675FF" stop-opacity="0"/>
</linearGradient>
<clipPath id="clip0_0_1">
<rect x="-545" y="-64" width="1920" height="6538" fill="white"/>
</clipPath>
<clipPath id="clip1_0_1">
<rect width="2241.89" height="1027" fill="white" transform="translate(-705.942 -64)"/>
</clipPath>
<clipPath id="clip2_0_1">
<rect width="805" height="608" fill="white" transform="translate(-545 -64)"/>
</clipPath>
</defs>
</svg>
