<svg width="71" height="17" viewBox="0 0 71 17" fill="none" xmlns="http://www.w3.org/2000/svg">
<path d="M0.488889 14.1222L6.46667 7.38889H0.933333V5.01111H10.6222V7.38889L4.64444 14.1222H11.0444V16.5H0.488889V14.1222ZM11.9234 8.54444C11.9679 7.8037 12.1531 7.18889 12.479 6.7C12.8049 6.21111 13.2197 5.81852 13.7234 5.52222C14.2271 5.22593 14.7901 5.01852 15.4123 4.9C16.0494 4.76667 16.6864 4.7 17.3234 4.7C17.9012 4.7 18.4864 4.74444 19.079 4.83333C19.6716 4.90741 20.2123 5.06296 20.7012 5.3C21.1901 5.53704 21.5901 5.87037 21.9012 6.3C22.2123 6.71481 22.3679 7.27037 22.3679 7.96667V13.9444C22.3679 14.463 22.3975 14.9593 22.4568 15.4333C22.516 15.9074 22.6197 16.263 22.7679 16.5H19.5679C19.5086 16.3222 19.4568 16.1444 19.4123 15.9667C19.3827 15.7741 19.3605 15.5815 19.3457 15.3889C18.842 15.9074 18.2494 16.2704 17.5679 16.4778C16.8864 16.6852 16.1901 16.7889 15.479 16.7889C14.9308 16.7889 14.4197 16.7222 13.9457 16.5889C13.4716 16.4556 13.0568 16.2481 12.7012 15.9667C12.3457 15.6852 12.0642 15.3296 11.8568 14.9C11.6642 14.4704 11.5679 13.9593 11.5679 13.3667C11.5679 12.7148 11.679 12.1815 11.9012 11.7667C12.1383 11.337 12.4345 10.9963 12.7901 10.7444C13.1605 10.4926 13.5753 10.3074 14.0345 10.1889C14.5086 10.0556 14.9827 9.95185 15.4568 9.87778C15.9308 9.8037 16.3975 9.74444 16.8568 9.7C17.316 9.65556 17.7234 9.58889 18.079 9.5C18.4345 9.41111 18.716 9.28519 18.9234 9.12222C19.1308 8.94444 19.2271 8.69259 19.2123 8.36667C19.2123 8.02593 19.1531 7.75926 19.0345 7.56667C18.9308 7.35926 18.7827 7.2037 18.5901 7.1C18.4123 6.98148 18.1975 6.90741 17.9457 6.87778C17.7086 6.83333 17.4494 6.81111 17.1679 6.81111C16.5457 6.81111 16.0568 6.94444 15.7012 7.21111C15.3457 7.47778 15.1383 7.92222 15.079 8.54444H11.9234ZM19.2123 10.8778C19.079 10.9963 18.9086 11.0926 18.7012 11.1667C18.5086 11.2259 18.2938 11.2778 18.0568 11.3222C17.8345 11.3667 17.5975 11.4037 17.3457 11.4333C17.0938 11.463 16.842 11.5 16.5901 11.5444C16.3531 11.5889 16.116 11.6481 15.879 11.7222C15.6568 11.7963 15.4568 11.9 15.279 12.0333C15.116 12.1519 14.9827 12.3074 14.879 12.5C14.7753 12.6926 14.7234 12.937 14.7234 13.2333C14.7234 13.5148 14.7753 13.7519 14.879 13.9444C14.9827 14.137 15.1234 14.2926 15.3012 14.4111C15.479 14.5148 15.6864 14.5889 15.9234 14.6333C16.1605 14.6778 16.4049 14.7 16.6568 14.7C17.279 14.7 17.7605 14.5963 18.1012 14.3889C18.442 14.1815 18.6938 13.937 18.8568 13.6556C19.0197 13.3593 19.116 13.063 19.1457 12.7667C19.1901 12.4704 19.2123 12.2333 19.2123 12.0556V10.8778ZM34.9283 16.5H31.9283V14.9H31.8616C31.4616 15.5667 30.9431 16.0481 30.3061 16.3444C29.669 16.6407 29.0172 16.7889 28.3505 16.7889C27.5061 16.7889 26.8098 16.6778 26.2616 16.4556C25.7283 16.2333 25.3061 15.9222 24.995 15.5222C24.6839 15.1074 24.4616 14.6111 24.3283 14.0333C24.2098 13.4407 24.1505 12.7889 24.1505 12.0778V5.01111H27.3061V11.5C27.3061 12.4481 27.4542 13.1593 27.7505 13.6333C28.0468 14.0926 28.5727 14.3222 29.3283 14.3222C30.1876 14.3222 30.8098 14.0704 31.195 13.5667C31.5801 13.0481 31.7727 12.2037 31.7727 11.0333V5.01111H34.9283V16.5ZM40.6566 5.01111H42.9677V7.12222H40.6566V12.8111C40.6566 13.3444 40.7455 13.7 40.9233 13.8778C41.101 14.0556 41.4566 14.1444 41.9899 14.1444C42.1677 14.1444 42.3381 14.137 42.501 14.1222C42.664 14.1074 42.8196 14.0852 42.9677 14.0556V16.5C42.701 16.5444 42.4047 16.5741 42.0788 16.5889C41.7529 16.6037 41.4344 16.6111 41.1233 16.6111C40.6344 16.6111 40.1677 16.5741 39.7233 16.5C39.2936 16.4407 38.9084 16.3148 38.5677 16.1222C38.2418 15.9296 37.9825 15.6556 37.7899 15.3C37.5973 14.9444 37.501 14.4778 37.501 13.9V7.12222H35.5899V5.01111H37.501V1.56667H40.6566V5.01111ZM46.6024 10.7667C46.6024 11.2259 46.6469 11.6778 46.7358 12.1222C46.8247 12.5519 46.9728 12.9444 47.1802 13.3C47.4024 13.6407 47.6913 13.9148 48.0469 14.1222C48.4024 14.3296 48.8469 14.4333 49.3802 14.4333C49.9135 14.4333 50.358 14.3296 50.7135 14.1222C51.0839 13.9148 51.3728 13.6407 51.5802 13.3C51.8024 12.9444 51.958 12.5519 52.0469 12.1222C52.1358 11.6778 52.1802 11.2259 52.1802 10.7667C52.1802 10.3074 52.1358 9.85556 52.0469 9.41111C51.958 8.96667 51.8024 8.57407 51.5802 8.23333C51.3728 7.89259 51.0839 7.61852 50.7135 7.41111C50.358 7.18889 49.9135 7.07778 49.3802 7.07778C48.8469 7.07778 48.4024 7.18889 48.0469 7.41111C47.6913 7.61852 47.4024 7.89259 47.1802 8.23333C46.9728 8.57407 46.8247 8.96667 46.7358 9.41111C46.6469 9.85556 46.6024 10.3074 46.6024 10.7667ZM43.4469 10.7667C43.4469 9.84815 43.5876 9.01852 43.8691 8.27778C44.1506 7.52222 44.5506 6.88518 45.0691 6.36667C45.5876 5.83333 46.2098 5.42593 46.9358 5.14444C47.6617 4.84815 48.4765 4.7 49.3802 4.7C50.2839 4.7 51.0987 4.84815 51.8247 5.14444C52.5654 5.42593 53.195 5.83333 53.7135 6.36667C54.2321 6.88518 54.6321 7.52222 54.9135 8.27778C55.195 9.01852 55.3358 9.84815 55.3358 10.7667C55.3358 11.6852 55.195 12.5148 54.9135 13.2556C54.6321 13.9963 54.2321 14.6333 53.7135 15.1667C53.195 15.6852 52.5654 16.0852 51.8247 16.3667C51.0987 16.6481 50.2839 16.7889 49.3802 16.7889C48.4765 16.7889 47.6617 16.6481 46.9358 16.3667C46.2098 16.0852 45.5876 15.6852 45.0691 15.1667C44.5506 14.6333 44.1506 13.9963 43.8691 13.2556C43.5876 12.5148 43.4469 11.6852 43.4469 10.7667ZM67.1208 16.4556C66.7949 16.6481 66.3431 16.7444 65.7653 16.7444C65.2764 16.7444 64.8838 16.6111 64.5875 16.3444C64.306 16.063 64.1653 15.6111 64.1653 14.9889C63.6468 15.6111 63.0394 16.063 62.3431 16.3444C61.6616 16.6111 60.9208 16.7444 60.1208 16.7444C59.6023 16.7444 59.106 16.6852 58.6319 16.5667C58.1727 16.4481 57.7727 16.263 57.4319 16.0111C57.0912 15.7593 56.8171 15.4333 56.6097 15.0333C56.4171 14.6185 56.3208 14.1222 56.3208 13.5444C56.3208 12.8926 56.4319 12.3593 56.6542 11.9444C56.8764 11.5296 57.1653 11.1963 57.5208 10.9444C57.8912 10.6778 58.306 10.4778 58.7653 10.3444C59.2394 10.2111 59.7208 10.1 60.2097 10.0111C60.7282 9.90741 61.2171 9.83333 61.6764 9.78889C62.1505 9.72963 62.5653 9.65556 62.9208 9.56667C63.2764 9.46296 63.5579 9.32222 63.7653 9.14444C63.9727 8.95185 64.0764 8.67778 64.0764 8.32222C64.0764 7.90741 63.9949 7.57407 63.8319 7.32222C63.6838 7.07037 63.4838 6.87778 63.2319 6.74444C62.9949 6.61111 62.7208 6.52222 62.4097 6.47778C62.1134 6.43333 61.8171 6.41111 61.5208 6.41111C60.7208 6.41111 60.0542 6.56667 59.5208 6.87778C58.9875 7.17407 58.6986 7.74444 58.6542 8.58889H56.7653C56.7949 7.87778 56.9431 7.27778 57.2097 6.78889C57.4764 6.3 57.8319 5.90741 58.2764 5.61111C58.7208 5.3 59.2245 5.07778 59.7875 4.94444C60.3653 4.81111 60.9801 4.74444 61.6319 4.74444C62.1505 4.74444 62.6616 4.78148 63.1653 4.85555C63.6838 4.92963 64.1505 5.08518 64.5653 5.32222C64.9801 5.54444 65.3134 5.86296 65.5653 6.27778C65.8171 6.69259 65.9431 7.23333 65.9431 7.9V13.8111C65.9431 14.2556 65.9653 14.5815 66.0097 14.7889C66.069 14.9963 66.2468 15.1 66.5431 15.1C66.706 15.1 66.8986 15.063 67.1208 14.9889V16.4556ZM64.0542 10.5667C63.8171 10.7444 63.506 10.8778 63.1208 10.9667C62.7356 11.0407 62.3282 11.1074 61.8986 11.1667C61.4838 11.2111 61.0616 11.2704 60.6319 11.3444C60.2023 11.4037 59.8171 11.5074 59.4764 11.6556C59.1356 11.8037 58.8542 12.0185 58.6319 12.3C58.4245 12.5667 58.3208 12.937 58.3208 13.4111C58.3208 13.7222 58.3801 13.9889 58.4986 14.2111C58.6319 14.4185 58.7949 14.5889 58.9875 14.7222C59.1949 14.8556 59.4319 14.9519 59.6986 15.0111C59.9653 15.0704 60.2468 15.1 60.5431 15.1C61.1653 15.1 61.6986 15.0185 62.1431 14.8556C62.5875 14.6778 62.9505 14.463 63.2319 14.2111C63.5134 13.9444 63.7208 13.663 63.8542 13.3667C63.9875 13.0556 64.0542 12.7667 64.0542 12.5V10.5667ZM70.8788 2.94444H68.9899V0.633333H70.8788V2.94444ZM68.9899 5.01111H70.8788V16.5H68.9899V5.01111Z" fill="#11001F"/>
</svg>
