<svg xmlns="http://www.w3.org/2000/svg" width="24" height="24" fill="none" viewBox="0 0 24 24"><mask id="15e9a" fill="#fff"><path fill-rule="evenodd" d="M22.5 12c0 5.799-4.701 10.5-10.5 10.5S1.5 17.799 1.5 12 6.201 1.5 12 1.5 22.5 6.201 22.5 12M11.926 7.85a1.56 1.56 0 0 0-1.465 1.02.85.85 0 1 1-1.594-.588 3.26 3.26 0 1 1 5.547 3.233l-.019.022-.02.021-1.075 1.105-.006.006-.006.006c-.319.315-.512.534-.512.94v.363a.85.85 0 0 1-1.7 0v-.364c0-1.144.664-1.8 1.003-2.134l.009-.008 1.046-1.076a1.56 1.56 0 0 0-1.208-2.546m0 9.917a.884.884 0 1 0 0-1.767.884.884 0 0 0 0 1.767" clip-rule="evenodd" shape-rendering="crispEdges"></path></mask><path fill="currentColor" fill-rule="evenodd" d="M22.5 12c0 5.799-4.701 10.5-10.5 10.5S1.5 17.799 1.5 12 6.201 1.5 12 1.5 22.5 6.201 22.5 12M11.926 7.85a1.56 1.56 0 0 0-1.465 1.02.85.85 0 1 1-1.594-.588 3.26 3.26 0 1 1 5.547 3.233l-.019.022-.02.021-1.075 1.105-.006.006-.006.006c-.319.315-.512.534-.512.94v.363a.85.85 0 0 1-1.7 0v-.364c0-1.144.664-1.8 1.003-2.134l.009-.008 1.046-1.076a1.56 1.56 0 0 0-1.208-2.546m0 9.917a.884.884 0 1 0 0-1.767.884.884 0 0 0 0 1.767" clip-rule="evenodd"></path><path fill="currentColor" d="m10.462 8.87 1.595.588zm-1.092.503-.588 1.595zm-.503-1.091-1.595-.589zm5.547 3.233-1.297-1.099zm-.019.022 1.22 1.185.04-.042.038-.044zm-.02.021 1.219 1.186zM13.3 12.663l1.22 1.185zm-.006.006 1.195 1.21.012-.012.012-.013zm-.006.006-1.194-1.21zM12.08 11.48l1.194 1.21zm.009-.008 1.194 1.21.012-.013.013-.012zm1.046-1.076 1.218 1.186.051-.053.046-.056zM12 24.2c6.738 0 12.2-5.462 12.2-12.2h-3.4a8.8 8.8 0 0 1-8.8 8.8zM-.2 12c0 6.738 5.462 12.2 12.2 12.2v-3.4A8.8 8.8 0 0 1 3.2 12zM12-.2C5.262-.2-.2 5.262-.2 12h3.4A8.8 8.8 0 0 1 12 3.2zM24.2 12C24.2 5.262 18.738-.2 12-.2v3.4a8.8 8.8 0 0 1 8.8 8.8zM12.057 9.458a.14.14 0 0 1-.05.065.15.15 0 0 1-.081.027v-3.4a3.26 3.26 0 0 0-3.06 2.132zm-3.275 1.51a2.55 2.55 0 0 0 3.274-1.51l-3.19-1.176a.85.85 0 0 1 1.092-.504zm-1.51-3.275a2.55 2.55 0 0 0 1.51 3.275l1.176-3.19a.85.85 0 0 1 .503 1.092zm4.654-3.243a4.96 4.96 0 0 0-4.654 3.243l3.19 1.177a1.56 1.56 0 0 1 1.464-1.02zm4.96 4.96a4.96 4.96 0 0 0-4.96-4.96v3.4c.861 0 1.56.698 1.56 1.56zm-1.174 3.203a4.95 4.95 0 0 0 1.173-3.203h-3.4c0 .384-.138.734-.368 1.006zm-.019.023.019-.023-2.595-2.197-.02.023zm-.1.108.021-.021-2.437-2.371-.02.021zm-1.074 1.104 1.075-1.104-2.438-2.371-1.074 1.105zm-.006.006.006-.006-2.437-2.37-.006.006zm-.03.031.006-.006-2.389-2.42-.006.007zm-.007-.27a.8.8 0 0 1-.112.382c-.025.04-.039.052-.018.028.023-.026.06-.065.137-.14l-2.389-2.42c-.33.326-1.018.985-1.018 2.15zm0 .363v-.364h-3.4v.364zm-2.55 2.55a2.55 2.55 0 0 0 2.55-2.55h-3.4c0-.47.38-.85.85-.85zm-2.55-2.55a2.55 2.55 0 0 0 2.55 2.55v-3.4c.469 0 .85.38.85.85zm0-.364v.364h3.4v-.364zm1.51-3.344c-.372.366-1.51 1.455-1.51 3.344h3.4c0-.4.19-.621.497-.923zm.008-.009-.009.01 2.388 2.42.009-.01zm1.021-1.05-1.046 1.075 2.438 2.37 1.045-1.074zm-.13.199a.14.14 0 0 1 .033-.09l2.631 2.153a3.25 3.25 0 0 0 .736-2.063zm.14.14a.14.14 0 0 1-.14-.14h3.4c0-1.8-1.46-3.26-3.26-3.26zm-.815 7.334c0-.451.366-.817.817-.817v3.4a2.584 2.584 0 0 0 2.583-2.583zm.817.816a.816.816 0 0 1-.817-.816h3.4a2.584 2.584 0 0 0-2.583-2.584zm.816-.816c0 .45-.366.816-.816.816v-3.4a2.584 2.584 0 0 0-2.584 2.584zm-.816-.817c.45 0 .816.366.816.817h-3.4a2.584 2.584 0 0 0 2.584 2.583z" mask="url(#15e9a)"></path></svg>