<svg xmlns="http://www.w3.org/2000/svg" width="24" height="24" fill="none" viewBox="0 0 24 24"><path stroke="#1A1A1A" stroke-width="1.7" d="M2.85 9.35c0-.423.218-.85.635-1.143l7.496-5.172h.001a1.84 1.84 0 0 1 2.036 0l7.495 5.17.002.002c.417.293.635.72.635 1.142V19.7c0 .73-.676 1.45-1.65 1.45h-15c-.974 0-1.65-.72-1.65-1.45z" class="e70a7f6estroke"></path><path stroke="#1A1A1A" stroke-linecap="round" stroke-width="1.7" d="M17.25 15A7.86 7.86 0 0 1 12 17.002 7.86 7.86 0 0 1 6.75 15" class="e70a7f6estroke"></path></svg>