  <svg
              xmlns="http://www.w3.org/2000/svg"
              width="24"
              height="24"
              fill="none"
              viewBox="0 0 24 24"
            >
              <mask id="90ffa" fill="#fff">
                <path
                  fill-rule="evenodd"
                  d="M10.5 2.335 3 7.51c-.625.437-1 1.116-1 1.84V19.7C2 20.965 3.125 22 4.5 22h15c1.375 0 2.5-1.035 2.5-2.3V9.35c0-.724-.375-1.403-1-1.84l-7.5-5.175a2.69 2.69 0 0 0-3 0M7.316 14.366a.85.85 0 1 0-1.132 1.268A8.7 8.7 0 0 0 12 17.852a8.7 8.7 0 0 0 5.816-2.218.85.85 0 1 0-1.132-1.268A7 7 0 0 1 12 16.152c-1.8 0-3.44-.675-4.684-1.786"
                  clip-rule="evenodd"
                ></path>
              </mask>
              <path
                fill="currentColor"
                fill-rule="evenodd"
                d="M10.5 2.335 3 7.51c-.625.437-1 1.116-1 1.84V19.7C2 20.965 3.125 22 4.5 22h15c1.375 0 2.5-1.035 2.5-2.3V9.35c0-.724-.375-1.403-1-1.84l-7.5-5.175a2.69 2.69 0 0 0-3 0M7.316 14.366a.85.85 0 1 0-1.132 1.268A8.7 8.7 0 0 0 12 17.852a8.7 8.7 0 0 0 5.816-2.218.85.85 0 1 0-1.132-1.268A7 7 0 0 1 12 16.152c-1.8 0-3.44-.675-4.684-1.786"
                clip-rule="evenodd"
              ></path>
              <path
                fill="currentColor"
                d="m3 7.51-.965-1.4-.01.007zm7.5-5.175L9.538.934l-.003.002zM21 7.51l.974-1.393-.009-.006zm-7.5-5.175.966-1.4-.004-.001zM6.116 14.434l1.268 1.132zm1.2-.068 1.133-1.268zm-1.132 1.268L5.05 16.902zm11.632 0 1.133 1.268zm.068-1.2-1.268 1.132zm-1.2-.068-1.133-1.268zM3.965 8.91l7.5-5.175L9.536.936l-7.5 5.175zm-.265.44c0-.12.063-.299.274-.447L2.026 6.117C.987 6.843.3 8.022.3 9.35zm0 10.35V9.35H.3V19.7zm.8.6a.9.9 0 0 1-.615-.227.5.5 0 0 1-.185-.373H.3c0 2.335 2.022 4 4.2 4zm15 0h-15v3.4h15zm.8-.6a.5.5 0 0 1-.185.373.9.9 0 0 1-.615.227v3.4c2.178 0 4.2-1.665 4.2-4zm0-10.35V19.7h3.4V9.35zm-.274-.447c.211.148.274.326.274.447h3.4c0-1.328-.687-2.507-1.726-3.233zm-7.491-5.169 7.5 5.175 1.93-2.798-7.5-5.175zm-1.073.002a.99.99 0 0 1 1.076 0L14.462.934a4.39 4.39 0 0 0-4.924 0zm-4.078 11.83a.85.85 0 0 1-1.2.068l2.265-2.536a2.55 2.55 0 0 0-3.6.203zm-.068-1.2c.35.313.38.85.068 1.2l-2.536-2.265a2.55 2.55 0 0 0 .203 3.6zM12 16.152c-1.8 0-3.44-.675-4.684-1.786l-2.265 2.536A10.4 10.4 0 0 0 12 19.552zm4.684-1.786A7 7 0 0 1 12 16.152v3.4c2.667 0 5.105-1.004 6.949-2.65zm-.068 1.2a.85.85 0 0 1 .068-1.2l2.265 2.536a2.55 2.55 0 0 0 .203-3.6zm1.2.068a.85.85 0 0 1-1.2-.068l2.536-2.265a2.55 2.55 0 0 0-3.6-.203zM12 17.852a8.7 8.7 0 0 0 5.816-2.218l-2.265-2.536A5.3 5.3 0 0 1 12 14.452zm-5.816-2.218A8.7 8.7 0 0 0 12 17.852v-3.4a5.3 5.3 0 0 1-3.551-1.354z"
                mask="url(#90ffa)"
              ></path>
            </svg>