<svg width="1438" height="812" viewBox="0 0 1438 812" fill="none" xmlns="http://www.w3.org/2000/svg">
<g opacity="0.7">
<path d="M564.05 808.54C564.531 808.228 564.668 807.586 564.356 807.105C564.044 806.624 563.401 806.487 562.92 806.799C562.44 807.111 562.303 807.754 562.615 808.235C562.927 808.716 563.569 808.852 564.05 808.54Z" fill="white"/>
<path d="M628.455 699.901C628.935 699.589 629.072 698.946 628.76 698.465C628.448 697.985 627.805 697.848 627.325 698.16C626.844 698.472 626.707 699.114 627.019 699.595C627.331 700.076 627.974 700.213 628.455 699.901Z" fill="white"/>
<path d="M703.688 741.435C704.169 741.123 704.306 740.48 703.994 739.999C703.682 739.519 703.039 739.382 702.559 739.694C702.078 740.006 701.941 740.649 702.253 741.129C702.565 741.61 703.208 741.747 703.688 741.435Z" fill="white"/>
<path d="M398.749 784.61C399.23 784.298 399.367 783.655 399.055 783.174C398.743 782.693 398.1 782.557 397.619 782.869C397.138 783.181 397.001 783.823 397.313 784.304C397.625 784.785 398.268 784.922 398.749 784.61Z" fill="white"/>
<path opacity="0.3" d="M661.244 679.863C661.725 679.551 661.862 678.908 661.55 678.428C661.238 677.947 660.595 677.81 660.114 678.122C659.633 678.434 659.497 679.077 659.809 679.558C660.121 680.038 660.763 680.175 661.244 679.863Z" fill="white"/>
<path opacity="0.11" d="M497.849 735.148C498.329 734.836 498.466 734.194 498.154 733.713C497.842 733.232 497.199 733.095 496.719 733.407C496.238 733.719 496.101 734.362 496.413 734.843C496.725 735.323 497.368 735.46 497.849 735.148Z" fill="white"/>
<path opacity="0.11" d="M662.033 732.569C662.513 732.257 662.65 731.614 662.338 731.133C662.026 730.652 661.384 730.516 660.903 730.828C660.422 731.14 660.285 731.782 660.597 732.263C660.909 732.744 661.552 732.881 662.033 732.569Z" fill="white"/>
<path d="M460.991 793.732C461.712 793.263 461.918 792.299 461.449 791.577C460.981 790.856 460.016 790.65 459.295 791.118C458.573 791.587 458.368 792.551 458.836 793.273C459.304 793.994 460.269 794.2 460.991 793.732Z" fill="white"/>
<path d="M760.698 753.951C761.419 753.483 761.625 752.518 761.156 751.797C760.688 751.075 759.723 750.87 759.002 751.338C758.28 751.806 758.075 752.771 758.543 753.493C759.011 754.214 759.976 754.419 760.698 753.951Z" fill="white"/>
<path d="M756.913 687.091C757.634 686.623 757.839 685.659 757.371 684.937C756.903 684.215 755.938 684.01 755.217 684.478C754.495 684.947 754.29 685.911 754.758 686.633C755.226 687.354 756.191 687.56 756.913 687.091Z" fill="white"/>
<path d="M746.733 625.626C747.454 625.158 747.66 624.193 747.191 623.472C746.723 622.75 745.759 622.545 745.037 623.013C744.315 623.481 744.11 624.446 744.578 625.167C745.047 625.889 746.011 626.094 746.733 625.626Z" fill="white"/>
<path opacity="0.3" d="M533.414 747.971C534.376 747.347 534.65 746.06 534.026 745.098C533.401 744.136 532.115 743.862 531.152 744.486C530.19 745.111 529.916 746.397 530.54 747.36C531.165 748.322 532.452 748.596 533.414 747.971Z" fill="white"/>
<path d="M493.277 686.138C494.239 685.513 494.513 684.227 493.888 683.265C493.264 682.302 491.977 682.028 491.015 682.653C490.053 683.277 489.779 684.564 490.403 685.526C491.028 686.489 492.314 686.762 493.277 686.138Z" fill="white"/>
<path d="M590.7 738.025C591.422 737.557 591.627 736.593 591.159 735.871C590.69 735.149 589.726 734.944 589.004 735.412C588.283 735.881 588.077 736.845 588.546 737.567C589.014 738.288 589.979 738.494 590.7 738.025Z" fill="white"/>
<path opacity="0.3" d="M610.899 676.646C611.861 676.021 612.135 674.735 611.51 673.772C610.886 672.81 609.599 672.536 608.637 673.161C607.675 673.785 607.401 675.072 608.025 676.034C608.65 676.996 609.936 677.27 610.899 676.646Z" fill="white"/>
<path opacity="0.3" d="M737.251 682.528C738.214 681.903 738.488 680.617 737.863 679.655C737.238 678.692 735.952 678.418 734.99 679.043C734.027 679.668 733.753 680.954 734.378 681.916C735.002 682.879 736.289 683.153 737.251 682.528Z" fill="white"/>
<path opacity="0.3" d="M636.479 750.397C637.442 749.773 637.716 748.486 637.091 747.524C636.467 746.561 635.18 746.288 634.218 746.912C633.255 747.537 632.981 748.823 633.606 749.786C634.231 750.748 635.517 751.022 636.479 750.397Z" fill="white"/>
<path opacity="0.11" d="M684.586 679.573C685.549 678.949 685.823 677.662 685.198 676.7C684.573 675.738 683.287 675.464 682.325 676.088C681.362 676.713 681.088 677.999 681.713 678.962C682.337 679.924 683.624 680.198 684.586 679.573Z" fill="white"/>
<path opacity="0.11" d="M483.346 434.662C484.309 434.037 484.583 432.751 483.958 431.789C483.334 430.826 482.047 430.552 481.085 431.177C480.122 431.801 479.849 433.088 480.473 434.05C481.098 435.013 482.384 435.286 483.346 434.662Z" fill="white"/>
<path d="M495.218 440.571C495.94 440.103 496.145 439.138 495.677 438.417C495.209 437.695 494.244 437.49 493.522 437.958C492.801 438.427 492.595 439.391 493.064 440.113C493.532 440.834 494.497 441.04 495.218 440.571Z" fill="white"/>
<path d="M512.096 403.63C512.818 403.162 513.023 402.198 512.555 401.476C512.086 400.754 511.122 400.549 510.4 401.017C509.679 401.486 509.473 402.45 509.942 403.172C510.41 403.893 511.374 404.099 512.096 403.63Z" fill="white"/>
<path d="M436.931 449.929C437.653 449.461 437.858 448.496 437.39 447.774C436.921 447.053 435.957 446.847 435.235 447.316C434.514 447.784 434.308 448.749 434.777 449.47C435.245 450.192 436.209 450.397 436.931 449.929Z" fill="white"/>
<path opacity="0.11" d="M407.38 498.81C408.343 498.185 408.616 496.899 407.992 495.936C407.367 494.974 406.081 494.7 405.119 495.325C404.156 495.949 403.882 497.236 404.507 498.198C405.131 499.161 406.418 499.434 407.38 498.81Z" fill="white"/>
<path d="M378.404 490.387C378.884 490.075 379.021 489.432 378.709 488.952C378.397 488.471 377.755 488.334 377.274 488.646C376.793 488.958 376.656 489.601 376.968 490.081C377.28 490.562 377.923 490.699 378.404 490.387Z" fill="white"/>
<path d="M502.767 470.326C503.248 470.014 503.385 469.371 503.073 468.891C502.761 468.41 502.118 468.273 501.637 468.585C501.156 468.897 501.02 469.54 501.332 470.02C501.644 470.501 502.286 470.638 502.767 470.326Z" fill="white"/>
<path d="M692.639 347.116C693.12 346.804 693.257 346.161 692.945 345.68C692.633 345.199 691.99 345.063 691.509 345.375C691.028 345.687 690.892 346.329 691.204 346.81C691.516 347.291 692.158 347.428 692.639 347.116Z" fill="white"/>
<path d="M757.045 238.476C757.526 238.164 757.662 237.521 757.35 237.04C757.038 236.56 756.396 236.423 755.915 236.735C755.434 237.047 755.297 237.69 755.609 238.17C755.921 238.651 756.564 238.788 757.045 238.476Z" fill="white"/>
<path d="M832.277 280.014C832.758 279.702 832.895 279.059 832.583 278.578C832.271 278.097 831.628 277.96 831.147 278.272C830.667 278.584 830.53 279.227 830.842 279.708C831.154 280.189 831.796 280.326 832.277 280.014Z" fill="white"/>
<path d="M198.614 636.765C199.094 636.453 199.231 635.81 198.919 635.329C198.607 634.848 197.965 634.711 197.484 635.023C197.003 635.335 196.866 635.978 197.178 636.459C197.49 636.94 198.133 637.077 198.614 636.765Z" fill="white"/>
<path opacity="0.11" d="M155.036 598.209C155.517 597.897 155.654 597.255 155.342 596.774C155.03 596.293 154.387 596.156 153.906 596.468C153.425 596.78 153.289 597.423 153.601 597.904C153.913 598.384 154.555 598.521 155.036 598.209Z" fill="white"/>
<path opacity="0.11" d="M130.589 642.544C131.07 642.232 131.207 641.589 130.895 641.108C130.583 640.628 129.94 640.491 129.459 640.803C128.979 641.115 128.842 641.757 129.154 642.238C129.466 642.719 130.108 642.856 130.589 642.544Z" fill="white"/>
<path opacity="0.11" d="M193.241 676.151C193.722 675.839 193.859 675.196 193.547 674.715C193.235 674.234 192.592 674.098 192.111 674.41C191.63 674.722 191.494 675.364 191.806 675.845C192.118 676.326 192.76 676.463 193.241 676.151Z" fill="white"/>
<path opacity="0.11" d="M377.907 506.795C378.387 506.483 378.524 505.841 378.212 505.36C377.9 504.879 377.258 504.742 376.777 505.054C376.296 505.366 376.159 506.009 376.471 506.49C376.783 506.97 377.426 507.107 377.907 506.795Z" fill="white"/>
<path opacity="0.11" d="M521.385 502.81C521.866 502.498 522.003 501.855 521.691 501.374C521.379 500.894 520.736 500.757 520.255 501.069C519.775 501.381 519.638 502.024 519.95 502.504C520.262 502.985 520.904 503.122 521.385 502.81Z" fill="white"/>
<path opacity="0.11" d="M682.944 385.582C683.425 385.27 683.561 384.628 683.249 384.147C682.937 383.666 682.295 383.529 681.814 383.841C681.333 384.153 681.196 384.796 681.508 385.277C681.82 385.758 682.463 385.894 682.944 385.582Z" fill="white"/>
<path opacity="0.3" d="M224.551 588.992C225.032 588.68 225.169 588.037 224.857 587.556C224.545 587.075 223.902 586.938 223.421 587.25C222.941 587.562 222.804 588.205 223.116 588.686C223.428 589.167 224.07 589.304 224.551 588.992Z" fill="white"/>
<path d="M394.343 411.963C394.824 411.651 394.961 411.009 394.649 410.528C394.337 410.047 393.694 409.91 393.213 410.222C392.733 410.534 392.596 411.177 392.908 411.658C393.22 412.138 393.862 412.275 394.343 411.963Z" fill="white"/>
<path d="M527.337 323.183C527.818 322.871 527.955 322.228 527.643 321.747C527.331 321.267 526.688 321.13 526.207 321.442C525.727 321.754 525.59 322.397 525.902 322.877C526.214 323.358 526.857 323.495 527.337 323.183Z" fill="white"/>
<path d="M387.12 530.526C387.6 530.214 387.737 529.571 387.425 529.09C387.113 528.609 386.47 528.473 385.99 528.785C385.509 529.097 385.372 529.739 385.684 530.22C385.996 530.701 386.639 530.838 387.12 530.526Z" fill="white"/>
<path opacity="0.3" d="M326.152 570.091C326.633 569.779 326.77 569.136 326.458 568.655C326.146 568.174 325.503 568.038 325.022 568.35C324.542 568.662 324.405 569.304 324.717 569.785C325.029 570.266 325.671 570.403 326.152 570.091Z" fill="white"/>
<path opacity="0.11" d="M219.704 562.435C220.184 562.123 220.321 561.481 220.009 561C219.697 560.519 219.054 560.382 218.574 560.694C218.093 561.006 217.956 561.649 218.268 562.13C218.58 562.611 219.223 562.747 219.704 562.435Z" fill="white"/>
<path opacity="0.3" d="M423.596 422.691C424.076 422.379 424.213 421.736 423.901 421.255C423.589 420.775 422.947 420.638 422.466 420.95C421.985 421.262 421.848 421.904 422.16 422.385C422.472 422.866 423.115 423.003 423.596 422.691Z" fill="white"/>
<path opacity="0.3" d="M412.671 537.463C413.152 537.151 413.289 536.509 412.977 536.028C412.665 535.547 412.022 535.41 411.541 535.722C411.061 536.034 410.924 536.677 411.236 537.158C411.548 537.638 412.191 537.775 412.671 537.463Z" fill="white"/>
<path opacity="0.3" d="M312.935 614.563C313.416 614.251 313.553 613.608 313.241 613.127C312.929 612.647 312.286 612.51 311.806 612.822C311.325 613.134 311.188 613.776 311.5 614.257C311.812 614.738 312.455 614.875 312.935 614.563Z" fill="white"/>
<path opacity="0.3" d="M249.815 572.603C250.296 572.291 250.432 571.648 250.12 571.167C249.808 570.687 249.166 570.55 248.685 570.862C248.204 571.174 248.067 571.817 248.379 572.297C248.691 572.778 249.334 572.915 249.815 572.603Z" fill="white"/>
<path opacity="0.3" d="M789.834 218.437C790.315 218.125 790.452 217.482 790.14 217.001C789.828 216.521 789.185 216.384 788.705 216.696C788.224 217.008 788.087 217.65 788.399 218.131C788.711 218.612 789.354 218.749 789.834 218.437Z" fill="white"/>
<path opacity="0.11" d="M626.439 273.723C626.92 273.411 627.056 272.769 626.744 272.288C626.432 271.807 625.79 271.67 625.309 271.982C624.828 272.294 624.691 272.937 625.003 273.418C625.315 273.899 625.958 274.035 626.439 273.723Z" fill="white"/>
<path opacity="0.11" d="M790.622 271.144C791.102 270.832 791.239 270.189 790.927 269.708C790.615 269.228 789.972 269.091 789.492 269.403C789.011 269.715 788.874 270.358 789.186 270.838C789.498 271.319 790.141 271.456 790.622 271.144Z" fill="white"/>
<path opacity="0.3" d="M575.362 421.983C576.324 421.358 576.598 420.072 575.973 419.109C575.349 418.147 574.062 417.873 573.1 418.498C572.138 419.122 571.864 420.409 572.488 421.371C573.113 422.333 574.399 422.607 575.362 421.983Z" fill="white"/>
<path opacity="0.11" d="M609.794 362.506C610.757 361.881 611.031 360.595 610.406 359.632C609.781 358.67 608.495 358.396 607.533 359.021C606.57 359.645 606.296 360.932 606.921 361.894C607.545 362.856 608.832 363.13 609.794 362.506Z" fill="white"/>
<path d="M589.581 332.305C590.303 331.837 590.508 330.872 590.04 330.151C589.572 329.429 588.607 329.224 587.886 329.692C587.164 330.16 586.959 331.125 587.427 331.847C587.895 332.568 588.86 332.773 589.581 332.305Z" fill="white"/>
<path d="M588.835 462.752C589.557 462.284 589.762 461.319 589.294 460.598C588.826 459.876 587.861 459.671 587.14 460.139C586.418 460.607 586.213 461.572 586.681 462.293C587.149 463.015 588.114 463.22 588.835 462.752Z" fill="white"/>
<path d="M889.286 292.524C890.008 292.056 890.213 291.092 889.745 290.37C889.276 289.648 888.312 289.443 887.59 289.911C886.869 290.38 886.663 291.344 887.132 292.066C887.6 292.787 888.564 292.993 889.286 292.524Z" fill="white"/>
<path d="M314.433 644.532C315.155 644.064 315.36 643.099 314.892 642.378C314.423 641.656 313.459 641.451 312.737 641.919C312.016 642.387 311.81 643.352 312.279 644.074C312.747 644.795 313.711 645.001 314.433 644.532Z" fill="white"/>
<path d="M185.609 699.67C186.33 699.202 186.536 698.238 186.067 697.516C185.599 696.794 184.635 696.589 183.913 697.057C183.191 697.526 182.986 698.49 183.454 699.212C183.923 699.933 184.887 700.139 185.609 699.67Z" fill="white"/>
<path d="M148.192 674.442C148.914 673.974 149.119 673.009 148.651 672.288C148.183 671.566 147.218 671.361 146.496 671.829C145.775 672.297 145.57 673.262 146.038 673.983C146.506 674.705 147.471 674.91 148.192 674.442Z" fill="white"/>
<path d="M559.084 376.855C559.806 376.387 560.011 375.422 559.543 374.701C559.075 373.979 558.11 373.774 557.389 374.242C556.667 374.71 556.462 375.675 556.93 376.396C557.398 377.118 558.363 377.323 559.084 376.855Z" fill="white"/>
<path d="M449.361 539.646C450.083 539.178 450.288 538.213 449.82 537.492C449.352 536.77 448.387 536.565 447.665 537.033C446.944 537.501 446.739 538.466 447.207 539.187C447.675 539.909 448.64 540.114 449.361 539.646Z" fill="white"/>
<path d="M693.143 434.668C693.865 434.2 694.07 433.235 693.602 432.514C693.133 431.792 692.169 431.587 691.447 432.055C690.726 432.523 690.52 433.488 690.989 434.209C691.457 434.931 692.421 435.136 693.143 434.668Z" fill="white"/>
<path d="M885.503 225.665C886.224 225.197 886.43 224.232 885.961 223.511C885.493 222.789 884.529 222.584 883.807 223.052C883.085 223.52 882.88 224.485 883.348 225.206C883.817 225.928 884.781 226.133 885.503 225.665Z" fill="white"/>
<path d="M875.323 164.201C876.045 163.733 876.25 162.768 875.782 162.047C875.313 161.325 874.349 161.12 873.627 161.588C872.906 162.056 872.7 163.021 873.169 163.743C873.637 164.464 874.602 164.67 875.323 164.201Z" fill="white"/>
<path opacity="0.3" d="M662.003 286.545C662.965 285.92 663.239 284.634 662.614 283.671C661.99 282.709 660.703 282.435 659.741 283.06C658.779 283.684 658.505 284.971 659.129 285.933C659.754 286.895 661.04 287.169 662.003 286.545Z" fill="white"/>
<path d="M621.866 224.712C622.828 224.087 623.102 222.801 622.477 221.838C621.853 220.876 620.566 220.602 619.604 221.227C618.641 221.851 618.368 223.138 618.992 224.1C619.617 225.062 620.903 225.336 621.866 224.712Z" fill="white"/>
<path d="M719.289 276.599C720.011 276.131 720.216 275.166 719.748 274.445C719.279 273.723 718.315 273.518 717.593 273.986C716.872 274.454 716.666 275.419 717.135 276.141C717.603 276.862 718.567 277.067 719.289 276.599Z" fill="white"/>
<path opacity="0.3" d="M739.49 215.219C740.452 214.595 740.726 213.308 740.101 212.346C739.477 211.384 738.19 211.11 737.228 211.734C736.265 212.359 735.992 213.645 736.616 214.608C737.241 215.57 738.527 215.844 739.49 215.219Z" fill="white"/>
<path opacity="0.3" d="M865.84 221.101C866.803 220.477 867.076 219.19 866.452 218.228C865.827 217.266 864.541 216.992 863.578 217.616C862.616 218.241 862.342 219.527 862.967 220.49C863.591 221.452 864.878 221.726 865.84 221.101Z" fill="white"/>
<path opacity="0.3" d="M765.068 288.97C766.03 288.346 766.304 287.059 765.679 286.097C765.055 285.135 763.768 284.861 762.806 285.485C761.844 286.11 761.57 287.396 762.194 288.359C762.819 289.321 764.105 289.595 765.068 288.97Z" fill="white"/>
<path opacity="0.3" d="M274.757 628.199C275.72 627.575 275.993 626.288 275.369 625.326C274.744 624.364 273.458 624.09 272.495 624.714C271.533 625.339 271.259 626.625 271.884 627.588C272.508 628.55 273.795 628.824 274.757 628.199Z" fill="white"/>
<path opacity="0.3" d="M173.115 626.083C174.077 625.459 174.351 624.172 173.727 623.21C173.102 622.247 171.816 621.974 170.853 622.598C169.891 623.223 169.617 624.509 170.242 625.472C170.866 626.434 172.153 626.708 173.115 626.083Z" fill="white"/>
<path opacity="0.11" d="M813.175 218.147C814.138 217.523 814.411 216.236 813.787 215.274C813.162 214.311 811.876 214.038 810.913 214.662C809.951 215.287 809.677 216.573 810.302 217.536C810.926 218.498 812.213 218.772 813.175 218.147Z" fill="white"/>
<path opacity="0.3" d="M278.445 515.649C279.407 515.025 279.681 513.738 279.056 512.776C278.432 511.813 277.145 511.54 276.183 512.164C275.221 512.789 274.947 514.075 275.571 515.037C276.196 516 277.482 516.274 278.445 515.649Z" fill="white"/>
<path opacity="0.11" d="M243.625 513.489C244.588 512.864 244.862 511.578 244.237 510.616C243.612 509.653 242.326 509.379 241.364 510.004C240.401 510.628 240.127 511.915 240.752 512.877C241.376 513.84 242.663 514.114 243.625 513.489Z" fill="white"/>
<path opacity="0.3" d="M272.837 573.751C273.8 573.126 274.074 571.84 273.449 570.877C272.824 569.915 271.538 569.641 270.576 570.266C269.613 570.89 269.339 572.177 269.964 573.139C270.588 574.101 271.875 574.375 272.837 573.751Z" fill="white"/>
<path d="M326.699 537.555C327.42 537.086 327.626 536.122 327.157 535.4C326.689 534.679 325.724 534.473 325.003 534.942C324.281 535.41 324.076 536.374 324.544 537.096C325.012 537.818 325.977 538.023 326.699 537.555Z" fill="white"/>
<path opacity="0.11" d="M1029.87 273.924C1030.83 273.299 1031.11 272.013 1030.48 271.05C1029.86 270.088 1028.57 269.814 1027.61 270.439C1026.65 271.063 1026.37 272.35 1027 273.312C1027.62 274.274 1028.91 274.548 1029.87 273.924Z" fill="white"/>
<path d="M1041.74 279.831C1042.47 279.363 1042.67 278.398 1042.2 277.677C1041.73 276.955 1040.77 276.75 1040.05 277.218C1039.33 277.686 1039.12 278.651 1039.59 279.372C1040.06 280.094 1041.02 280.299 1041.74 279.831Z" fill="white"/>
<path d="M1058.62 242.892C1059.34 242.423 1059.55 241.459 1059.08 240.737C1058.61 240.016 1057.65 239.81 1056.93 240.279C1056.21 240.747 1056 241.711 1056.47 242.433C1056.94 243.155 1057.9 243.36 1058.62 242.892Z" fill="white"/>
<path d="M983.457 289.189C984.178 288.72 984.384 287.756 983.915 287.034C983.447 286.313 982.483 286.107 981.761 286.575C981.04 287.044 980.834 288.008 981.302 288.73C981.771 289.451 982.735 289.657 983.457 289.189Z" fill="white"/>
<path opacity="0.11" d="M953.906 338.07C954.868 337.445 955.142 336.159 954.518 335.196C953.893 334.234 952.607 333.96 951.644 334.585C950.682 335.209 950.408 336.495 951.033 337.458C951.657 338.42 952.944 338.694 953.906 338.07Z" fill="white"/>
<path d="M924.93 329.646C925.41 329.334 925.547 328.692 925.235 328.211C924.923 327.73 924.28 327.593 923.8 327.905C923.319 328.217 923.182 328.86 923.494 329.341C923.806 329.822 924.449 329.958 924.93 329.646Z" fill="white"/>
<path d="M1049.29 309.588C1049.77 309.276 1049.91 308.633 1049.6 308.152C1049.28 307.671 1048.64 307.535 1048.16 307.847C1047.68 308.159 1047.54 308.801 1047.86 309.282C1048.17 309.763 1048.81 309.9 1049.29 309.588Z" fill="white"/>
<path d="M1239.16 186.375C1239.65 186.063 1239.78 185.421 1239.47 184.94C1239.16 184.459 1238.52 184.322 1238.04 184.634C1237.55 184.946 1237.42 185.589 1237.73 186.07C1238.04 186.551 1238.68 186.687 1239.16 186.375Z" fill="white"/>
<path d="M1303.57 77.7357C1304.05 77.4237 1304.19 76.781 1303.88 76.3002C1303.56 75.8194 1302.92 75.6826 1302.44 75.9947C1301.96 76.3067 1301.82 76.9493 1302.14 77.4301C1302.45 77.9109 1303.09 78.0477 1303.57 77.7357Z" fill="white"/>
<path d="M1378.8 119.27C1379.28 118.958 1379.42 118.315 1379.11 117.834C1378.8 117.354 1378.15 117.217 1377.67 117.529C1377.19 117.841 1377.06 118.483 1377.37 118.964C1377.68 119.445 1378.32 119.582 1378.8 119.27Z" fill="white"/>
<path d="M745.138 476.026C745.619 475.714 745.756 475.072 745.444 474.591C745.132 474.11 744.489 473.973 744.008 474.285C743.527 474.597 743.391 475.24 743.703 475.721C744.015 476.201 744.657 476.338 745.138 476.026Z" fill="white"/>
<path opacity="0.11" d="M701.562 437.471C702.043 437.159 702.18 436.516 701.868 436.036C701.556 435.555 700.913 435.418 700.432 435.73C699.951 436.042 699.814 436.685 700.126 437.165C700.438 437.646 701.081 437.783 701.562 437.471Z" fill="white"/>
<path opacity="0.11" d="M677.115 481.806C677.595 481.494 677.732 480.851 677.42 480.37C677.108 479.889 676.466 479.752 675.985 480.064C675.504 480.376 675.367 481.019 675.679 481.5C675.991 481.981 676.634 482.118 677.115 481.806Z" fill="white"/>
<path opacity="0.11" d="M739.765 515.412C740.246 515.1 740.383 514.457 740.071 513.977C739.759 513.496 739.116 513.359 738.635 513.671C738.154 513.983 738.018 514.626 738.33 515.106C738.642 515.587 739.284 515.724 739.765 515.412Z" fill="white"/>
<path opacity="0.11" d="M924.431 346.054C924.911 345.742 925.048 345.1 924.736 344.619C924.424 344.138 923.782 344.001 923.301 344.313C922.82 344.625 922.683 345.268 922.995 345.749C923.307 346.23 923.95 346.367 924.431 346.054Z" fill="white"/>
<path opacity="0.11" d="M1067.9 342.072C1068.38 341.76 1068.51 341.117 1068.2 340.636C1067.89 340.155 1067.25 340.019 1066.77 340.331C1066.29 340.643 1066.15 341.285 1066.46 341.766C1066.77 342.247 1067.42 342.384 1067.9 342.072Z" fill="white"/>
<path opacity="0.11" d="M1229.47 224.844C1229.95 224.532 1230.09 223.889 1229.78 223.408C1229.46 222.927 1228.82 222.791 1228.34 223.103C1227.86 223.415 1227.72 224.057 1228.03 224.538C1228.35 225.019 1228.99 225.156 1229.47 224.844Z" fill="white"/>
<path opacity="0.3" d="M771.077 428.251C771.558 427.939 771.695 427.297 771.383 426.816C771.071 426.335 770.428 426.198 769.947 426.51C769.466 426.822 769.33 427.465 769.642 427.946C769.954 428.427 770.596 428.563 771.077 428.251Z" fill="white"/>
<path d="M940.867 251.225C941.348 250.913 941.485 250.27 941.173 249.789C940.861 249.309 940.218 249.172 939.737 249.484C939.257 249.796 939.12 250.439 939.432 250.919C939.744 251.4 940.386 251.537 940.867 251.225Z" fill="white"/>
<path d="M1073.86 162.445C1074.34 162.133 1074.48 161.49 1074.17 161.009C1073.86 160.528 1073.21 160.392 1072.73 160.704C1072.25 161.016 1072.12 161.658 1072.43 162.139C1072.74 162.62 1073.38 162.757 1073.86 162.445Z" fill="white"/>
<path d="M933.644 369.787C934.124 369.475 934.261 368.833 933.949 368.352C933.637 367.871 932.994 367.734 932.514 368.046C932.033 368.358 931.896 369.001 932.208 369.482C932.52 369.963 933.163 370.099 933.644 369.787Z" fill="white"/>
<path opacity="0.3" d="M872.678 409.352C873.159 409.04 873.296 408.397 872.984 407.916C872.672 407.436 872.029 407.299 871.548 407.611C871.067 407.923 870.931 408.566 871.243 409.046C871.555 409.527 872.197 409.664 872.678 409.352Z" fill="white"/>
<path opacity="0.11" d="M766.229 401.695C766.71 401.383 766.847 400.74 766.535 400.26C766.222 399.779 765.58 399.642 765.099 399.954C764.618 400.266 764.481 400.909 764.793 401.39C765.105 401.87 765.748 402.007 766.229 401.695Z" fill="white"/>
<path opacity="0.3" d="M970.121 261.952C970.602 261.64 970.739 260.998 970.427 260.517C970.115 260.036 969.472 259.899 968.991 260.211C968.51 260.523 968.374 261.166 968.686 261.647C968.998 262.128 969.64 262.264 970.121 261.952Z" fill="white"/>
<path opacity="0.3" d="M959.197 376.725C959.678 376.413 959.815 375.77 959.503 375.289C959.191 374.809 958.548 374.672 958.067 374.984C957.586 375.296 957.45 375.939 957.762 376.419C958.074 376.9 958.716 377.037 959.197 376.725Z" fill="white"/>
<path opacity="0.3" d="M859.459 453.823C859.94 453.511 860.077 452.868 859.765 452.387C859.453 451.906 858.81 451.77 858.33 452.082C857.849 452.394 857.712 453.036 858.024 453.517C858.336 453.998 858.979 454.135 859.459 453.823Z" fill="white"/>
<path opacity="0.3" d="M796.339 411.864C796.82 411.552 796.956 410.909 796.644 410.429C796.332 409.948 795.69 409.811 795.209 410.123C794.728 410.435 794.591 411.078 794.903 411.559C795.215 412.039 795.858 412.176 796.339 411.864Z" fill="white"/>
<path opacity="0.3" d="M1336.36 57.6981C1336.84 57.386 1336.98 56.7434 1336.66 56.2626C1336.35 55.7818 1335.71 55.645 1335.23 55.957C1334.75 56.269 1334.61 56.9117 1334.92 57.3925C1335.24 57.8733 1335.88 58.0101 1336.36 57.6981Z" fill="white"/>
<path opacity="0.11" d="M1172.96 112.983C1173.45 112.671 1173.58 112.029 1173.27 111.548C1172.96 111.067 1172.32 110.93 1171.83 111.242C1171.35 111.554 1171.22 112.197 1171.53 112.678C1171.84 113.158 1172.48 113.295 1172.96 112.983Z" fill="white"/>
<path opacity="0.11" d="M1337.15 110.404C1337.63 110.092 1337.76 109.449 1337.45 108.968C1337.14 108.487 1336.5 108.351 1336.02 108.663C1335.54 108.975 1335.4 109.617 1335.71 110.098C1336.02 110.579 1336.67 110.716 1337.15 110.404Z" fill="white"/>
<path opacity="0.3" d="M1121.89 261.242C1122.85 260.618 1123.12 259.331 1122.5 258.369C1121.87 257.407 1120.59 257.133 1119.62 257.757C1118.66 258.382 1118.39 259.668 1119.01 260.631C1119.64 261.593 1120.92 261.867 1121.89 261.242Z" fill="white"/>
<path opacity="0.11" d="M1156.32 201.767C1157.28 201.143 1157.56 199.856 1156.93 198.894C1156.31 197.932 1155.02 197.658 1154.06 198.282C1153.1 198.907 1152.82 200.193 1153.45 201.156C1154.07 202.118 1155.36 202.392 1156.32 201.767Z" fill="white"/>
<path d="M1136.11 171.566C1136.83 171.098 1137.03 170.134 1136.57 169.412C1136.1 168.69 1135.13 168.485 1134.41 168.953C1133.69 169.422 1133.48 170.386 1133.95 171.108C1134.42 171.829 1135.39 172.035 1136.11 171.566Z" fill="white"/>
<path d="M1135.36 302.013C1136.08 301.545 1136.29 300.58 1135.82 299.859C1135.35 299.137 1134.39 298.932 1133.66 299.4C1132.94 299.868 1132.74 300.833 1133.21 301.555C1133.67 302.276 1134.64 302.482 1135.36 302.013Z" fill="white"/>
<path d="M1435.81 131.786C1436.53 131.318 1436.74 130.353 1436.27 129.632C1435.8 128.91 1434.84 128.705 1434.12 129.173C1433.39 129.641 1433.19 130.606 1433.66 131.328C1434.13 132.049 1435.09 132.254 1435.81 131.786Z" fill="white"/>
<path d="M860.958 483.794C861.68 483.325 861.885 482.361 861.417 481.639C860.949 480.918 859.984 480.712 859.263 481.18C858.541 481.649 858.336 482.613 858.804 483.335C859.272 484.056 860.237 484.262 860.958 483.794Z" fill="white"/>
<path d="M732.135 538.932C732.856 538.464 733.062 537.499 732.593 536.778C732.125 536.056 731.16 535.851 730.439 536.319C729.717 536.787 729.512 537.752 729.98 538.474C730.448 539.195 731.413 539.4 732.135 538.932Z" fill="white"/>
<path d="M694.718 513.704C695.44 513.235 695.645 512.271 695.177 511.549C694.709 510.828 693.744 510.622 693.022 511.091C692.301 511.559 692.095 512.523 692.564 513.245C693.032 513.967 693.997 514.172 694.718 513.704Z" fill="white"/>
<path d="M1105.61 216.115C1106.33 215.647 1106.54 214.682 1106.07 213.96C1105.6 213.239 1104.64 213.033 1103.91 213.502C1103.19 213.97 1102.99 214.935 1103.46 215.656C1103.92 216.378 1104.89 216.583 1105.61 216.115Z" fill="white"/>
<path d="M995.887 378.908C996.609 378.44 996.814 377.475 996.346 376.753C995.877 376.032 994.913 375.826 994.191 376.295C993.47 376.763 993.264 377.728 993.733 378.449C994.201 379.171 995.165 379.376 995.887 378.908Z" fill="white"/>
<path d="M1239.67 273.93C1240.39 273.461 1240.6 272.497 1240.13 271.775C1239.66 271.054 1238.69 270.848 1237.97 271.317C1237.25 271.785 1237.05 272.75 1237.51 273.471C1237.98 274.193 1238.95 274.398 1239.67 273.93Z" fill="white"/>
<path d="M1432.03 64.9268C1432.75 64.4585 1432.95 63.494 1432.49 62.7724C1432.02 62.0508 1431.05 61.8455 1430.33 62.3137C1429.61 62.782 1429.41 63.7466 1429.87 64.4682C1430.34 65.1897 1431.31 65.3951 1432.03 64.9268Z" fill="white"/>
<path d="M1421.85 3.461C1422.57 2.99272 1422.78 2.02817 1422.31 1.30659C1421.84 0.585012 1420.87 0.379651 1420.15 0.847928C1419.43 1.31621 1419.23 2.28076 1419.69 3.00234C1420.16 3.72392 1421.13 3.92928 1421.85 3.461Z" fill="white"/>
<path opacity="0.3" d="M1208.51 125.806C1209.48 125.182 1209.75 123.895 1209.13 122.933C1208.5 121.971 1207.22 121.697 1206.25 122.321C1205.29 122.946 1205.02 124.232 1205.64 125.195C1206.27 126.157 1207.55 126.431 1208.51 125.806Z" fill="white"/>
<path d="M1168.39 63.9729C1169.35 63.3484 1169.63 62.0619 1169 61.0995C1168.38 60.1371 1167.09 59.8633 1166.13 60.4878C1165.17 61.1124 1164.89 62.3988 1165.52 63.3612C1166.14 64.3236 1167.43 64.5974 1168.39 63.9729Z" fill="white"/>
<path d="M1265.81 115.86C1266.54 115.392 1266.74 114.428 1266.27 113.706C1265.81 112.984 1264.84 112.779 1264.12 113.247C1263.4 113.716 1263.19 114.68 1263.66 115.402C1264.13 116.123 1265.09 116.329 1265.81 115.86Z" fill="white"/>
<path opacity="0.3" d="M1286.01 54.4812C1286.98 53.8567 1287.25 52.5702 1286.63 51.6078C1286 50.6455 1284.71 50.3716 1283.75 50.9961C1282.79 51.6207 1282.52 52.9071 1283.14 53.8695C1283.76 54.8319 1285.05 55.1058 1286.01 54.4812Z" fill="white"/>
<path opacity="0.3" d="M1412.37 60.3626C1413.33 59.738 1413.6 58.4516 1412.98 57.4892C1412.35 56.5268 1411.07 56.2529 1410.1 56.8775C1409.14 57.502 1408.87 58.7885 1409.49 59.7508C1410.12 60.7132 1411.4 60.9871 1412.37 60.3626Z" fill="white"/>
<path opacity="0.3" d="M1311.59 128.232C1312.56 127.607 1312.83 126.321 1312.21 125.358C1311.58 124.396 1310.29 124.122 1309.33 124.747C1308.37 125.371 1308.1 126.658 1308.72 127.62C1309.35 128.582 1310.63 128.856 1311.59 128.232Z" fill="white"/>
<path opacity="0.3" d="M821.283 467.461C822.245 466.836 822.519 465.55 821.894 464.587C821.27 463.625 819.983 463.351 819.021 463.976C818.059 464.6 817.785 465.887 818.409 466.849C819.034 467.811 820.32 468.085 821.283 467.461Z" fill="white"/>
<path opacity="0.3" d="M719.641 465.344C720.603 464.72 720.877 463.433 720.253 462.471C719.628 461.509 718.342 461.235 717.379 461.859C716.417 462.484 716.143 463.77 716.768 464.733C717.392 465.695 718.679 465.969 719.641 465.344Z" fill="white"/>
<path opacity="0.11" d="M1359.7 57.4085C1360.66 56.7839 1360.94 55.4975 1360.31 54.5351C1359.69 53.5727 1358.4 53.2988 1357.44 53.9234C1356.48 54.5479 1356.2 55.8344 1356.83 56.7967C1357.45 57.7591 1358.74 58.033 1359.7 57.4085Z" fill="white"/>
<path opacity="0.3" d="M824.971 354.909C825.933 354.284 826.207 352.998 825.582 352.036C824.958 351.073 823.671 350.799 822.709 351.424C821.746 352.048 821.473 353.335 822.097 354.297C822.722 355.26 824.008 355.533 824.971 354.909Z" fill="white"/>
<path opacity="0.11" d="M790.151 352.75C791.114 352.126 791.387 350.839 790.763 349.877C790.138 348.914 788.852 348.641 787.89 349.265C786.927 349.89 786.653 351.176 787.278 352.139C787.902 353.101 789.189 353.375 790.151 352.75Z" fill="white"/>
<path opacity="0.3" d="M819.363 413.01C820.325 412.386 820.599 411.099 819.974 410.137C819.35 409.175 818.063 408.901 817.101 409.525C816.139 410.15 815.865 411.436 816.489 412.399C817.114 413.361 818.4 413.635 819.363 413.01Z" fill="white"/>
<path d="M873.223 376.816C873.945 376.348 874.15 375.383 873.682 374.662C873.213 373.94 872.249 373.735 871.527 374.203C870.806 374.671 870.6 375.636 871.069 376.357C871.537 377.079 872.501 377.284 873.223 376.816Z" fill="white"/>
</g>
</svg>
